<svg width="100" height="100" viewBox="0 0 100 100" fill="none" xmlns="http://www.w3.org/2000/svg">
<path d="M16.1184 56.3623C17.3768 56.3623 17.3768 58.2757 16.1184 58.2757H10.9705C9.71216 58.2757 9.71216 56.3623 10.9705 56.3623H16.1184ZM16.8048 45.3407C18.0631 45.3407 18.0631 47.2542 16.8048 47.2542H13.8495C12.5912 47.2542 12.5912 45.3407 13.8495 45.3407H16.8048ZM37.911 19.2794C39.1694 19.2794 39.1694 21.1929 37.911 21.1929H34.9558C33.6974 21.1929 33.6974 19.2794 34.9558 19.2794H37.911ZM87.7691 20.217C89.0274 20.217 89.0274 22.1305 87.7691 22.1305H77.7403C76.4819 22.1305 76.4819 20.217 77.7403 20.217H87.7691ZM79.2083 11.1281C80.4667 11.1281 80.4667 13.0415 79.2083 13.0415H66.8725C65.6142 13.0415 65.6142 11.1281 66.8725 11.1281H79.2083ZM71.5438 20.217C72.8021 20.217 72.8021 22.1305 71.5438 22.1305H68.5885C67.3301 22.1305 67.3301 20.217 68.5885 20.217H71.5438ZM37.2056 9.98C38.4639 9.98 38.4639 11.8935 37.2056 11.8935H27.1768C25.9184 11.8935 25.9184 9.98 27.1768 9.98H37.2056ZM28.6449 19.0689C29.9032 19.0689 29.9032 20.9824 28.6449 20.9824H16.3091C15.0507 20.9824 15.0507 19.0689 16.3091 19.0689H28.6449ZM20.9803 9.98C22.2386 9.98 22.2386 11.8935 20.9803 11.8935H18.025C16.7666 11.8935 16.7666 9.98 18.025 9.98H20.9803ZM21.0565 85.9252C19.7982 85.9252 19.7982 84.0117 21.0565 84.0117H24.8888C26.1472 84.0117 26.1472 85.9252 24.8888 85.9252H21.0565ZM28.7211 85.9252C27.4628 85.9252 27.4628 84.0117 28.7211 84.0117H33.7737V82.1557C28.5305 81.6773 24.4694 77.2381 24.4694 71.9187C24.4694 66.5801 28.5305 62.16 33.7737 61.6817V59.0411C33.7737 57.7782 35.6803 57.7782 35.6803 59.0411V61.6817C40.9235 62.16 44.9846 66.5993 44.9846 71.9187C44.9846 77.2572 40.9235 81.6773 35.6803 82.1557V84.0117H47.3488C48.6071 84.0117 48.6071 85.9252 47.3488 85.9252H28.7211ZM37.1674 67.4029C38.4258 67.4029 38.4258 69.3164 37.1674 69.3164H34.7079C34.0787 69.3164 33.5067 69.4694 33.1254 69.6991C32.8776 69.8521 32.725 70.0052 32.725 70.1392C32.725 70.6558 33.7737 70.8089 34.8414 70.9811C36.7099 71.249 38.5974 71.5169 38.5974 73.6982C38.5974 75.2098 37.0912 76.1092 35.6612 76.3579V76.6641H33.7546V76.4344H32.0196C30.7612 76.4344 30.7612 74.521 32.0196 74.521H34.727C35.3562 74.521 35.9091 74.3679 36.3095 74.1383C36.5573 73.9852 36.7099 73.8321 36.7099 73.6982C36.7099 73.1816 35.6422 73.0285 34.5935 72.8754C32.725 72.6075 30.8375 72.3396 30.8375 70.1583C30.8375 68.6467 32.3437 67.7473 33.7737 67.4986L33.7927 67.1542L35.6803 67.2116V67.4029H37.1674ZM40.6184 65.987C37.3581 62.7149 32.0768 62.7149 28.8165 65.987C25.5562 69.259 25.5562 74.5593 28.8165 77.8313C32.0768 81.1033 37.3581 81.1033 40.6184 77.8313C43.8787 74.5593 43.8787 69.259 40.6184 65.987ZM27.0814 48.5171H27.9204C27.1005 45.8191 25.4418 42.4131 23.8211 39.2942C23.4779 38.6436 23.9737 37.8974 24.66 37.8974H44.7367C45.4422 37.8974 45.976 38.6628 45.5184 39.3899C44.1266 41.8391 43.0589 43.8865 42.2581 45.5895C41.7433 46.6993 41.3429 47.6751 41.0379 48.5171C42.3153 48.5171 43.364 48.364 44.3554 49.359C46.1857 51.1768 44.8702 54.2766 42.3153 54.2766H41.7052C42.0865 54.621 42.5441 54.9654 43.0208 55.3481C46.8721 58.3331 52.9161 62.9828 53.0496 84.2605C53.1068 84.2796 53.164 84.2988 53.2021 84.3179H61.7247L53.6787 72.9328C53.2212 72.3014 53.6978 71.4212 54.4605 71.4212H58.6741V47.8091H54.4414C53.6978 47.8091 53.164 46.948 53.6978 46.2401L61.7628 34.8932H13.8305C9.5787 34.8932 7.36702 29.7078 10.4176 26.6462C11.2947 25.766 12.4958 25.2303 13.8305 25.2303H87.178C91.4298 25.2303 93.6224 30.4349 90.5909 33.4773C89.7138 34.3575 88.5126 34.8932 87.178 34.8932H65.4426L73.5457 46.2975C74.0033 46.9289 73.5266 47.8091 72.764 47.8091H68.5694V71.4212H72.764C73.5076 71.4212 74.0414 72.2822 73.5076 72.9902L65.4426 84.337H87.178C91.4298 84.337 93.6224 89.5416 90.5909 92.584C89.7138 93.4642 88.5126 94 87.178 94H13.8305C9.5787 94 7.36702 88.7954 10.4176 85.753C11.2947 84.8728 12.4958 84.337 13.8305 84.337H16.1756C16.2328 84.3179 16.2709 84.2988 16.3281 84.2796C16.4616 63.4229 22.1052 58.7349 25.804 55.6734C26.3951 55.195 26.9289 54.7549 27.3484 54.2957C26.4141 54.2957 25.7087 54.1235 25.0414 53.4538C23.2491 51.6169 24.5647 48.5171 27.0814 48.5171ZM29.9032 48.5171H39.0359C39.8558 45.9148 41.5527 42.6428 43.1161 39.8108H26.2235C27.6534 42.6428 29.1787 45.9148 29.9032 48.5171ZM39.2266 54.2957H29.7316C27.1958 58.9454 18.2538 58.1609 18.2538 84.9876C18.2538 85.4277 17.9487 85.8295 17.4912 85.9252C16.4235 86.1548 15.5655 87.0541 15.4129 88.1639H54.0219C53.8694 87.0733 52.9924 86.1357 51.9819 85.9443C51.5243 85.8678 51.1811 85.466 51.1811 84.9876C51.1811 58.0844 41.9149 58.6201 39.2266 54.2957ZM42.3344 50.4305H27.0814C26.2425 50.4305 25.7849 51.4638 26.3951 52.0952C26.5667 52.2674 26.8145 52.3823 27.0814 52.3823H42.3344C43.1924 52.3823 43.6499 51.349 43.0208 50.7175C42.8492 50.5453 42.6013 50.4305 42.3344 50.4305ZM55.3375 86.2505C55.8523 87.1498 56.043 88.1831 55.8714 89.2546C55.7951 89.733 55.3947 90.0583 54.9371 90.0583H14.4787C13.983 90.0583 13.5635 89.6756 13.5254 89.1781C13.3919 88.1065 13.5254 87.2264 14.0783 86.2505C13.1441 86.2505 12.4386 86.4418 11.7713 87.1115C9.92189 88.9676 11.2756 92.1057 13.8305 92.1057H87.178C89.7329 92.1057 91.0866 88.9676 89.2372 87.1115C88.7033 86.5949 87.9788 86.2505 87.178 86.2505H55.3375ZM47.8445 12.6588C46.9675 11.7786 48.3021 10.4201 49.1982 11.3003L51.448 13.5773L53.6978 11.3194C54.5939 10.4201 55.9286 11.7786 55.0515 12.678L52.8017 14.9167L55.0515 17.1746C55.9286 18.0548 54.5939 19.4134 53.6978 18.5332L51.448 16.2753L49.1982 18.5332C48.3212 19.4134 46.9675 18.0739 47.8445 17.1746L50.0943 14.9167L47.8445 12.6588ZM77.9309 62.6193C77.3017 61.5286 78.9605 60.5719 79.5706 61.6625L80.6002 63.4612L85.3286 57.6443C85.6527 57.2424 86.2628 57.1659 86.6632 57.5103C87.0636 57.8548 87.1208 58.4479 86.7967 58.8498L81.2103 65.7191C80.7718 66.2931 79.9519 66.1974 79.6278 65.6234L77.9309 62.6193ZM87.178 27.1246H13.8305C11.2756 27.1246 9.92189 30.2627 11.7713 32.1187C12.3052 32.6545 13.0297 32.9798 13.8305 32.9798H87.178C89.7329 32.9798 91.0866 29.8417 89.2372 27.9856C88.7224 27.4499 87.9788 27.1246 87.178 27.1246ZM67.4255 40.9398L63.6122 35.5821L56.2908 45.8956H59.5893C60.104 45.8956 60.5426 46.3166 60.5426 46.8524V72.397C60.5426 72.9137 60.1231 73.3538 59.5893 73.3538H56.2908L63.6122 83.6673L70.9336 73.3538H67.6352C67.1013 73.3538 66.6819 72.9328 66.6819 72.397V46.8524C66.6819 46.3166 67.1013 45.8956 67.6352 45.8956H70.9336L67.4255 40.9398ZM51.448 6C56.3671 6 60.3519 9.99913 60.3519 14.9359C60.3519 19.8726 56.3671 23.8717 51.448 23.8717C46.5289 23.8717 42.5441 19.8534 42.5441 14.9167C42.5441 9.99913 46.5289 6 51.448 6ZM56.3861 9.96086C53.6597 7.22461 49.2363 7.22461 46.4908 9.96086C43.7643 12.6971 43.7643 17.1363 46.4908 19.8726C49.2173 22.6088 53.6597 22.6088 56.3861 19.8726C59.1126 17.1363 59.1317 12.6971 56.3861 9.96086ZM82.4115 52.7649C87.3305 52.7649 91.3154 56.7641 91.3154 61.7008C91.3154 66.6375 87.3305 70.6367 82.4115 70.6367C77.4924 70.6367 73.5076 66.6375 73.5076 61.7008C73.5266 56.7641 77.5115 52.7649 82.4115 52.7649ZM87.3687 56.7258C84.6422 53.9896 80.2189 53.9896 77.4924 56.7258C74.7659 59.4621 74.7659 63.9013 77.4924 66.6375C80.2189 69.3738 84.6422 69.3738 87.3687 66.6375C90.0951 63.9013 90.0951 59.4621 87.3687 56.7258Z" fill="white"/>
</svg>
