<svg width="290" height="408" viewBox="0 0 290 408" fill="none" xmlns="http://www.w3.org/2000/svg">
<path d="M289.547 406C289.547 407.154 224.763 408 144.774 408C64.7845 408 0 407.154 0 406C0 404.846 64.7845 404 144.774 404C224.763 404 289.547 404.923 289.547 406Z" fill="#263238"/>
<path d="M183.273 234.555L205.027 234.924L194.429 221.293L183.273 234.555Z" fill="#455A64"/>
<path d="M193.625 245.246H189.938V248.933H193.625V245.246Z" fill="#455A64"/>
<path d="M196.99 249.141H193.621V252.424H196.99V249.141Z" fill="#455A64"/>
<path d="M192.946 253.807H190.109V256.643H192.946V253.807Z" fill="#455A64"/>
<path d="M199.828 246.131H196.992V248.967H199.828V246.131Z" fill="#455A64"/>
<path d="M189.762 249.141H187.742V251.16H189.762V249.141Z" fill="#455A64"/>
<path d="M196.243 260.899H193.363V258.02H196.243V260.899ZM194.223 260.039H195.383V258.879H194.223V260.039Z" fill="#455A64"/>
<path d="M199.156 252.621H197.137V254.641H199.156V252.621Z" fill="#455A64"/>
<path d="M199.787 232.775L188.484 232.904V246.183H199.821L199.787 232.775ZM196.177 243.828H194.157V241.809H196.177V243.828Z" fill="#455A64"/>
<path d="M110.199 320.022L134.479 320.434L122.653 305.213L110.199 320.022Z" fill="#01B0F1"/>
<path d="M121.48 331.951H117.363V336.068H121.48V331.951Z" fill="#01B0F1"/>
<path d="M125.406 336.463H121.289V340.58H125.406V336.463Z" fill="#01B0F1"/>
<path d="M120.526 342.006H117.363V345.169H120.526V342.006Z" fill="#01B0F1"/>
<path d="M128.171 332.939H125.008V336.102H128.171V332.939Z" fill="#01B0F1"/>
<path d="M117.37 336.816H115.109V339.077H117.37V336.816Z" fill="#01B0F1"/>
<path d="M127.717 340.355H125.457V342.616H127.717V340.355Z" fill="#01B0F1"/>
<path d="M127.865 318.037L116.279 318.175L115.531 333.001H128.209L127.865 318.037ZM123.791 330.371H121.53V328.119H123.791V330.371Z" fill="#01B0F1"/>
<path d="M69.6172 259.058L105.028 259.651L87.778 237.459L69.6172 259.058Z" fill="#455A64"/>
<path d="M86.0578 276.463H80.0586V282.462H86.0578V276.463Z" fill="#455A64"/>
<path d="M91.2147 282.531H86.0664V287.68H91.2147V282.531Z" fill="#455A64"/>
<path d="M84.674 288.812H80.0586V293.428H84.674V288.812Z" fill="#455A64"/>
<path d="M95.8224 277.898H91.207V282.514H95.8224V277.898Z" fill="#455A64"/>
<path d="M80.0613 283.029H76.7695V286.321H80.0613V283.029Z" fill="#455A64"/>
<path d="M89.8841 299.462H85.75V295.311H89.9013L89.8841 299.462ZM86.5923 298.602H89.0246V296.17H86.6095L86.5923 298.602Z" fill="#455A64"/>
<path d="M94.4988 288.17H91.207V291.462H94.4988V288.17Z" fill="#455A64"/>
<path d="M95.8803 256.472L77.5563 256.377L77.4102 277.984H95.8803V256.472ZM89.4514 274.151H86.1596V270.833H89.4514V274.151Z" fill="#455A64"/>
<path d="M171.094 287.85L199.646 288.331L185.739 270.445L171.094 287.85Z" fill="#01B0F1"/>
<path d="M184.354 301.887H179.516V306.726H184.354V301.887Z" fill="#01B0F1"/>
<path d="M188.979 307.182H184.141V312.021H188.979V307.182Z" fill="#01B0F1"/>
<path d="M183.229 313.695H179.516V317.408H183.229V313.695Z" fill="#01B0F1"/>
<path d="M192.221 303.047H188.508V306.76H192.221V303.047Z" fill="#01B0F1"/>
<path d="M179.515 307.602H176.859V310.257H179.515V307.602Z" fill="#01B0F1"/>
<path d="M187.441 322.291H183.926V318.775H187.441V322.291ZM184.785 321.431H186.582V319.635H184.785V321.431Z" fill="#01B0F1"/>
<path d="M191.699 311.762H189.043V314.418H191.699V311.762Z" fill="#01B0F1"/>
<path d="M191.885 285.521L178.262 285.685L177.402 303.115H192.288L191.885 285.521ZM187.879 300.133H185.232V297.485H187.879V300.133Z" fill="#01B0F1"/>
<path d="M27.5469 92.5987L62.966 93.1917L45.7077 71L27.5469 92.5987Z" fill="#01B0F1"/>
<path d="M43.9992 110.002H38V116.001H43.9992V110.002Z" fill="#01B0F1"/>
<path d="M49.1483 116.07H44V121.219H49.1483V116.07Z" fill="#01B0F1"/>
<path d="M42.6068 122.354H38V126.969H42.6068V122.354Z" fill="#01B0F1"/>
<path d="M53.7513 111.438H49.1445V116.053H53.7513V111.438Z" fill="#01B0F1"/>
<path d="M37.9988 116.57H34.707V119.862H37.9988V116.57Z" fill="#01B0F1"/>
<path d="M47.3856 129.281H44.0938V132.573H47.3856V129.281Z" fill="#01B0F1"/>
<path d="M52.4363 121.709H49.1445V125.001H52.4363V121.709Z" fill="#01B0F1"/>
<path d="M53.8132 90.0105L35.4891 89.916L35.3516 111.523H53.8132V90.0105ZM47.3929 107.69H44.1011V104.398H47.3929V107.69Z" fill="#01B0F1"/>
<path d="M5.54688 339.518L55.5925 340.356L31.2073 309L5.54688 339.518Z" fill="#01B0F1"/>
<path d="M28.793 364.107H20.3164V372.584H28.793V364.107Z" fill="#01B0F1"/>
<path d="M36.0673 372.682H28.793V379.956H36.0673V372.682Z" fill="#01B0F1"/>
<path d="M26.8256 381.561H20.3164V388.082H26.8256V381.561Z" fill="#01B0F1"/>
<path d="M42.5717 366.137H36.0625V372.658H42.5717V366.137Z" fill="#01B0F1"/>
<path d="M20.3152 373.389H15.6641V378.04H20.3152V373.389Z" fill="#01B0F1"/>
<path d="M33.577 391.35H28.9258V396.001H33.577V391.35Z" fill="#01B0F1"/>
<path d="M40.7137 380.65H36.0625V385.302H40.7137V380.65Z" fill="#01B0F1"/>
<path d="M42.6596 335.86L16.7685 335.727L16.5742 366.257H42.6596V335.86ZM33.588 360.84H28.9369V356.189H33.588V360.84Z" fill="#01B0F1"/>
<path d="M240.547 353.682L267.913 354.147L254.599 337L240.547 353.682Z" fill="#01B0F1"/>
<path d="M253.258 367.133H248.617V371.774H253.258V367.133Z" fill="#01B0F1"/>
<path d="M257.237 371.826H253.258V375.806H257.237V371.826Z" fill="#01B0F1"/>
<path d="M252.184 376.672H248.617V380.239H252.184V376.672Z" fill="#01B0F1"/>
<path d="M260.805 368.242H257.238V371.809H260.805V368.242Z" fill="#01B0F1"/>
<path d="M248.618 372.213H246.074V374.757H248.618V372.213Z" fill="#01B0F1"/>
<path d="M255.88 382.027H253.336V384.571H255.88V382.027Z" fill="#01B0F1"/>
<path d="M259.782 376.184H257.238V378.728H259.782V376.184Z" fill="#01B0F1"/>
<path d="M260.838 351.689L246.682 351.611L246.57 368.311H260.838V351.689ZM255.878 365.354H253.3V362.776H255.878V365.354Z" fill="#01B0F1"/>
<path d="M218.547 80.5901L253.957 81.1917L236.708 59L218.547 80.5901Z" fill="#01B0F1"/>
<path d="M234.987 97.9941H228.988V103.993H234.987V97.9941Z" fill="#01B0F1"/>
<path d="M240.148 104.062H235V109.211H240.148V104.062Z" fill="#01B0F1"/>
<path d="M233.604 110.346H228.988V114.961H233.604V110.346Z" fill="#01B0F1"/>
<path d="M244.752 99.4395H240.137V104.055H244.752V99.4395Z" fill="#01B0F1"/>
<path d="M228.991 104.57H225.699V107.862H228.991V104.57Z" fill="#01B0F1"/>
<path d="M238.386 117.271H235.094V120.563H238.386V117.271Z" fill="#01B0F1"/>
<path d="M243.429 109.709H240.137V113.001H243.429V109.709Z" fill="#01B0F1"/>
<path d="M244.814 78.0113L226.49 77.9082L226.344 99.5241H244.814V78.0113ZM238.385 95.6908H235.093V92.399H238.385V95.6908Z" fill="#01B0F1"/>
<path d="M197.389 403.774L80.4999 403.714C66.4389 403.714 55.0422 392.833 55.0508 379.434L55.1024 100.104C55.1024 86.6958 66.5162 75.8234 80.5859 75.832L197.475 75.9008C211.536 75.9008 222.933 86.7732 222.924 100.172L222.873 379.503C222.838 392.919 211.433 403.783 197.389 403.774Z" fill="#263238"/>
<path d="M196.53 85.7246H173.882H107.702H79.8639C70.0143 85.7246 62.0211 93.3224 62.0211 102.716L61.9609 375.36C61.9609 384.746 69.9455 392.361 79.7865 392.361L196.478 392.429C206.328 392.429 214.321 384.823 214.321 375.437L214.381 102.785C214.381 93.3396 206.405 85.7332 196.53 85.7246Z" fill="white"/>
<path d="M187.968 109.859H180.25V116.89H187.968V109.859Z" fill="#01B0F1"/>
<path d="M104.667 109.205H101.418V111.766H104.667V109.205Z" fill="#01B0F1"/>
<path d="M180.284 104.471H177.035V107.032H180.284V104.471Z" fill="#01B0F1"/>
<path d="M154.079 91.457H149.129V96.0381H154.079V91.457Z" fill="#01B0F1"/>
<path d="M102.479 117.01H92.8438V125.501H102.479V117.01Z" fill="#01B0F1"/>
<path d="M134.021 98.3418H130.918V100.903H134.021V98.3418Z" fill="#01B0F1"/>
<path d="M172.894 104.514H111.252L110.539 243.551H172.894V104.514Z" fill="#01B0F1"/>
<path d="M144.825 103.205H138.121V108.74H144.825V103.205Z" fill="white"/>
<path d="M164.051 103.293H157.613V112.403H164.051V103.293Z" fill="white"/>
<path d="M169.364 103.154H165.109V110.838H169.364V103.154Z" fill="white"/>
<path d="M117.949 103.576H112.199V111.767H117.949V103.576Z" fill="white"/>
<path d="M127.05 104.135H123.922V109.859H127.05V104.135Z" fill="white"/>
<path d="M154.365 101.049H148.254V106.085H154.365V101.049Z" fill="#01B0F1"/>
<path d="M139.711 66.2648C139.701 66.7724 139.541 67.2658 139.252 67.683C138.962 68.1001 138.556 68.4226 138.084 68.6099C137.612 68.7971 137.095 68.8409 136.599 68.7356C136.102 68.6304 135.647 68.3809 135.292 68.0183C134.936 67.6557 134.696 67.1963 134.601 66.6976C134.505 66.1989 134.559 65.6831 134.756 65.2149C134.952 64.7468 135.283 64.3471 135.706 64.066C136.128 63.7849 136.625 63.6349 137.133 63.6348C137.476 63.6347 137.815 63.7031 138.131 63.8359C138.448 63.9686 138.734 64.1632 138.974 64.4081C139.214 64.653 139.403 64.9434 139.53 65.2622C139.656 65.581 139.718 65.9219 139.711 66.2648Z" fill="#01B0F1"/>
<path d="M88.2011 57.7307C89.6346 57.7307 90.7967 56.5532 90.7967 55.1007C90.7967 53.6482 89.6346 52.4707 88.2011 52.4707C86.7676 52.4707 85.6055 53.6482 85.6055 55.1007C85.6055 56.5532 86.7676 57.7307 88.2011 57.7307Z" fill="#01B0F1"/>
<path d="M111.786 106.001H110.926L111.614 61.6H81.6523L82.3399 60.8781C82.5376 60.6718 87.1874 55.7212 88.2789 54.9648L88.786 55.6524C88.0727 56.1853 85.4169 58.9013 83.6291 60.7405H112.465L111.786 106.001Z" fill="#01B0F1"/>
<path d="M96.1355 49.6949C96.17 50.2108 96.0486 50.7251 95.787 51.1712C95.5254 51.6172 95.1358 51.9742 94.6687 52.196C94.2017 52.4178 93.6787 52.494 93.1678 52.4148C92.6568 52.3356 92.1815 52.1046 91.8035 51.7518C91.4255 51.399 91.1623 50.9407 91.0481 50.4364C90.9339 49.9321 90.9739 49.4052 91.1629 48.9239C91.352 48.4427 91.6814 48.0294 92.1083 47.7377C92.5353 47.4461 93.04 47.2895 93.5571 47.2884C94.2176 47.2675 94.8596 47.5088 95.3427 47.9598C95.8258 48.4107 96.1109 49.0345 96.1355 49.6949Z" fill="#01B0F1"/>
<path d="M100.928 43.6539C100.963 44.1698 100.842 44.6841 100.58 45.1301C100.318 45.5761 99.9288 45.9332 99.4617 46.155C98.9946 46.3768 98.4717 46.453 97.9607 46.3738C97.4498 46.2945 96.9745 46.0635 96.5965 45.7107C96.2185 45.358 95.9553 44.8997 95.8411 44.3954C95.7268 43.8911 95.7668 43.3642 95.9559 42.8829C96.145 42.4017 96.4744 41.9884 96.9013 41.6967C97.3282 41.4051 97.833 41.2485 98.35 41.2473C99.0106 41.2264 99.6525 41.4678 100.136 41.9187C100.619 42.3697 100.904 42.9935 100.928 43.6539Z" fill="#01B0F1"/>
<path d="M116.015 32.0064C117.245 32.0064 118.241 30.929 118.241 29.5999C118.241 28.2708 117.245 27.1934 116.015 27.1934C114.786 27.1934 113.789 28.2708 113.789 29.5999C113.789 30.929 114.786 32.0064 116.015 32.0064Z" fill="#01B0F1"/>
<path d="M139.462 32.0413C139.459 32.5131 139.316 32.9734 139.051 33.364C138.787 33.7547 138.412 34.0583 137.975 34.2365C137.539 34.4147 137.059 34.4596 136.596 34.3654C136.134 34.2713 135.71 34.0424 135.377 33.7076C135.045 33.3727 134.819 32.947 134.728 32.484C134.637 32.021 134.686 31.5414 134.867 31.1058C135.048 30.6702 135.355 30.2981 135.747 30.0363C136.14 29.7745 136.601 29.6348 137.073 29.6348C137.708 29.6393 138.316 29.8949 138.763 30.3457C139.211 30.7965 139.462 31.406 139.462 32.0413Z" fill="#01B0F1"/>
<path d="M144.402 12.3851C144.397 12.8548 144.253 13.3125 143.988 13.7006C143.724 14.0887 143.35 14.3899 142.915 14.5661C142.479 14.7424 142.001 14.7858 141.541 14.6911C141.081 14.5963 140.659 14.3676 140.329 14.0336C139.999 13.6997 139.774 13.2754 139.685 12.8143C139.595 12.3532 139.643 11.8759 139.824 11.4423C140.005 11.0088 140.31 10.6385 140.701 10.378C141.092 10.1175 141.551 9.97854 142.021 9.97852C142.656 9.98306 143.263 10.2389 143.709 10.69C144.155 11.141 144.404 11.7506 144.402 12.3851Z" fill="#01B0F1"/>
<path d="M157.021 18.8834C158.307 18.8834 159.35 17.8059 159.35 16.4769C159.35 15.1478 158.307 14.0703 157.021 14.0703C155.734 14.0703 154.691 15.1478 154.691 16.4769C154.691 17.8059 155.734 18.8834 157.021 18.8834Z" fill="#01B0F1"/>
<path d="M181.919 38.796C181.884 39.2285 181.724 39.6415 181.458 39.9845C181.192 40.3275 180.832 40.5857 180.422 40.7275C180.012 40.8693 179.569 40.8886 179.148 40.783C178.727 40.6775 178.346 40.4517 178.051 40.1331C177.757 39.8146 177.561 39.4172 177.489 38.9893C177.416 38.5614 177.469 38.1217 177.643 37.7238C177.816 37.3259 178.101 36.987 178.464 36.7485C178.826 36.51 179.25 36.3823 179.684 36.3809C179.99 36.3919 180.29 36.4633 180.568 36.5908C180.846 36.7183 181.096 36.8995 181.304 37.1239C181.511 37.3483 181.673 37.6116 181.778 37.8985C181.884 38.1855 181.932 38.4905 181.919 38.796Z" fill="#01B0F1"/>
<path d="M148.452 44.6761C148.435 45.131 148.285 45.5709 148.02 45.9411C147.755 46.3112 147.387 46.5952 146.962 46.7578C146.536 46.9203 146.073 46.9542 145.628 46.8552C145.184 46.7562 144.779 46.5286 144.463 46.2009C144.147 45.8732 143.934 45.4598 143.851 45.0122C143.768 44.5645 143.819 44.1024 143.997 43.6834C144.175 43.2643 144.472 42.9068 144.852 42.6554C145.231 42.4041 145.676 42.2698 146.131 42.2695C146.442 42.2751 146.748 42.3418 147.033 42.4658C147.317 42.5898 147.575 42.7686 147.79 42.9921C148.006 43.2156 148.175 43.4793 148.289 43.7682C148.402 44.0572 148.458 44.3657 148.452 44.6761Z" fill="#01B0F1"/>
<path d="M158.764 43.8858C158.746 44.3407 158.594 44.78 158.327 45.1492C158.061 45.5183 157.692 45.801 157.266 45.962C156.84 46.1229 156.377 46.1551 155.933 46.0545C155.489 45.9538 155.084 45.7249 154.769 45.396C154.454 45.0672 154.243 44.653 154.162 44.2051C154.081 43.7572 154.133 43.2952 154.313 42.8768C154.492 42.4585 154.791 42.1021 155.171 41.852C155.551 41.602 155.997 41.4694 156.452 41.4707C156.763 41.4763 157.07 41.5433 157.354 41.6679C157.639 41.7925 157.896 41.9723 158.111 42.1968C158.326 42.4213 158.494 42.6862 158.607 42.976C158.719 43.2659 158.772 43.5751 158.764 43.8858Z" fill="#01B0F1"/>
<path d="M187.253 49.858C188.483 49.858 189.479 48.7806 189.479 47.4515C189.479 46.1224 188.483 45.0449 187.253 45.0449C186.024 45.0449 185.027 46.1224 185.027 47.4515C185.027 48.7806 186.024 49.858 187.253 49.858Z" fill="#01B0F1"/>
<path d="M151.468 7.22882C151.463 7.69892 151.319 8.15699 151.054 8.54528C150.789 8.93357 150.415 9.23469 149.979 9.41067C149.543 9.58666 149.065 9.62964 148.604 9.53419C148.144 9.43874 147.722 9.20913 147.392 8.87431C147.062 8.5395 146.839 8.11446 146.75 7.6528C146.661 7.19114 146.711 6.71351 146.893 6.28014C147.075 5.84677 147.382 5.47706 147.774 5.21761C148.166 4.95817 148.626 4.82061 149.096 4.82228C149.729 4.82908 150.334 5.0859 150.778 5.53672C151.223 5.98755 151.471 6.5958 151.468 7.22882Z" fill="#01B0F1"/>
<path d="M127.935 109.429H127.076V81.1433C126.354 80.6019 122.675 78.3844 120.38 77.0178L120.165 76.8975V55.0754L103.079 54.8777L95.3438 49.6177L95.8336 48.9043L103.32 54.0612L120.999 54.2588V76.442C127.875 80.5417 127.875 80.6792 127.875 80.9886L127.935 109.429Z" fill="#01B0F1"/>
<path d="M138.152 107.53H137.293V78.2132L129.007 72.4031V46.6961L110.468 34.5173C106.927 37.8177 101.796 42.6394 101.521 42.966L100.859 42.4073C101.246 41.9518 109.222 34.5001 110.125 33.6578L110.374 33.4258L129.875 46.232V71.9562L138.161 77.7663L138.152 107.53Z" fill="#01B0F1"/>
<path d="M137.551 66.7995H136.691V39.9751L148.741 32.1711V9.49805H149.601V32.6352L137.551 40.4393V66.7995Z" fill="#01B0F1"/>
<path d="M137.5 32.0422H136.641V20.0267L141.591 17.5772V12.3516H142.451V18.1101L137.5 20.5596V32.0422Z" fill="#01B0F1"/>
<path d="M145.641 108.268H144.781V75.5304L151.674 69.4453V65.2167L145.899 59.9911V46.4629H146.758V59.6043L152.534 64.8385V69.8321L145.641 75.9172V108.268Z" fill="#01B0F1"/>
<path d="M157.613 43.8848H156.754V111.105H157.613V43.8848Z" fill="#01B0F1"/>
<path d="M165.004 112.187H164.145L164.308 54.3442L175.653 47.1504H187.54V48.0099H175.902L165.167 54.8255L165.004 112.187Z" fill="#01B0F1"/>
<path d="M172.981 118.514H172.121V60.2756L199.315 59.5795L187.824 49.0766L188.4 48.4492L201.472 60.3874L172.981 61.1093V118.514Z" fill="#01B0F1"/>
<path d="M180.201 39.3301L170.051 37.4564L157.855 24.8737V24.7447C157.511 22.9141 156.402 16.9063 156.402 16.4766H157.262C157.262 16.8461 158.121 21.5217 158.671 24.4697L170.558 36.6657L180.442 38.4964L180.201 39.3301Z" fill="#01B0F1"/>
<path d="M117.543 29.016L117.285 28.1995L124.221 25.9992L129.739 20.5071L125.141 17.3872L142.004 0L148.733 6.11948L148.158 6.7555L142.038 1.19467L126.473 17.2497L131.088 20.3782L124.677 26.7556L117.543 29.016Z" fill="#01B0F1"/>
<path d="M187.97 125.502H181.438V132.034H187.97V125.502Z" fill="#01B0F1"/>
<path d="M89.6189 115.17H82.2188V107.787H89.6189V115.17ZM83.0782 114.311H88.7594V108.647H83.0782V114.311Z" fill="#01B0F1"/>
<path d="M42.1852 189.602H29.1211V202.666H42.1852V189.602Z" fill="#263238"/>
<path d="M251.091 191.312H238.027V204.377H251.091V191.312Z" fill="#263238"/>
<path d="M231.75 165.312H228.484V168.579H231.75V165.312Z" fill="#263238"/>
<path d="M198.455 156.115H192.121V162.45H198.455V156.115Z" fill="#455A64"/>
<path d="M190.547 150.047H186.68V153.915H190.547V150.047Z" fill="#455A64"/>
<path d="M204.359 138.092H199.641V133.365H204.359V138.092ZM200.5 137.233H203.5V134.225H200.5V137.233Z" fill="#455A64"/>
<path d="M240.843 175.815H234.93V169.91H240.843V175.815ZM235.789 174.955H239.983V170.77H235.789V174.955Z" fill="#263238"/>
<path d="M16.4515 189.034H10.5469V183.129H16.4515V189.034ZM11.4064 188.174H15.592V183.988H11.4064V188.174Z" fill="#263238"/>
<path d="M84.5229 175.652H75.9453V184.23H84.5229V175.652Z" fill="#455A64"/>
<path d="M88.8693 161.436H84.5117V165.793H88.8693V161.436Z" fill="#455A64"/>
<path d="M42.1232 132.24H37.7656V136.598H42.1232V132.24Z" fill="#263238"/>
<path d="M258.111 207.77H253.754V212.127H258.111V207.77Z" fill="#263238"/>
<path d="M29.6701 211.467H25.3125V215.824H29.6701V211.467Z" fill="#263238"/>
<path d="M79.5736 150.84H72.1562V158.257H79.5736V150.84Z" fill="#455A64"/>
<path d="M99.2563 147.71H92.5352V140.963H99.2907L99.2563 147.71ZM93.3603 146.85H98.3968V141.822H93.3946L93.3603 146.85Z" fill="#455A64"/>
<path d="M111.994 217.432L74.5469 235.309L81.8954 327.437L81.0445 386.595L196.945 386.663L196.309 335.628L199.601 315.034L215.089 235.309L171.341 216.28L162.566 210.367L118.948 210.47L111.994 217.432Z" fill="#E0E0E0"/>
<g opacity="0.2">
<path d="M80.8555 363.414C82.7893 365.864 86.4593 365.993 89.519 365.348C99.8327 363.294 109.192 355.894 119.601 357.132C126.262 357.939 132.751 362.288 139.197 360.441C141.423 359.805 143.434 358.447 145.72 358.129C149.072 357.664 152.252 359.469 155.252 361.025C167.998 367.623 182.245 370.778 196.584 370.178L202.437 354.587L150.009 340.991L107.989 338.584L80.8984 354.416L80.8555 363.414Z" fill="black"/>
</g>
<path d="M136.921 386.594C136.801 386.594 137.428 354.69 138.331 315.352C139.233 276.013 140.05 244.101 140.187 244.109C140.325 244.118 139.68 276.005 138.778 315.36C137.875 354.716 137.05 386.602 136.921 386.594Z" fill="#263238"/>
<path d="M213.449 235.309C213.449 235.309 223.316 237.982 228.507 259.434C230.699 268.459 242.104 343.663 240.54 354.131C238.975 364.6 223.161 375.232 199.5 371.948C186.444 370.135 163.969 358.661 163.969 358.661L181.304 335.55H197.961L204.545 330.616L199.233 310.238C199.233 310.238 209.581 241.918 213.449 235.309Z" fill="#E0E0E0"/>
<path d="M228.504 331.648C228.461 331.726 227.257 330.926 225.186 329.929C222.505 328.546 219.591 327.672 216.591 327.351C214.947 327.223 213.293 327.318 211.675 327.634L210.592 327.884C210.248 327.978 209.922 328.099 209.595 328.193C209.011 328.389 208.437 328.616 207.876 328.872C205.779 329.835 204.61 330.703 204.559 330.591C204.802 330.354 205.07 330.144 205.358 329.964C206.113 329.434 206.909 328.966 207.739 328.563C208.312 328.277 208.903 328.03 209.509 327.823C209.836 327.712 210.171 327.574 210.523 327.48L211.624 327.205C213.278 326.856 214.974 326.746 216.66 326.878C219.709 327.185 222.665 328.106 225.349 329.585C226.163 330.018 226.952 330.494 227.713 331.012C228.001 331.192 228.267 331.405 228.504 331.648Z" fill="#263238"/>
<path d="M186.977 335.626C187.217 335.575 187.462 335.555 187.707 335.566L189.744 335.505L197.041 335.428H196.938L203.53 331.182L203.47 331.234C203.917 330.71 204.372 330.142 204.905 329.627C205.849 328.645 206.892 327.764 208.017 326.997C210.836 325.044 214.074 323.781 217.471 323.309C218.894 323.107 220.334 323.055 221.768 323.155C222.275 323.198 222.628 323.266 222.929 323.301C223.067 323.31 223.203 323.339 223.332 323.387C222.808 323.398 222.283 323.381 221.76 323.335C218.217 323.234 214.7 323.973 211.497 325.493C210.375 326.023 209.3 326.646 208.283 327.358C207.183 328.11 206.163 328.974 205.24 329.936C204.725 330.443 204.278 331.002 203.84 331.509L197.144 335.798H197.084L189.787 335.72L187.75 335.669C187.491 335.676 187.233 335.662 186.977 335.626Z" fill="#263238"/>
<path d="M140.187 244.111C140.199 244.15 140.199 244.192 140.187 244.231C140.184 244.259 140.175 244.286 140.16 244.31C140.145 244.334 140.125 244.354 140.101 244.369C140.066 244.384 140.028 244.392 139.989 244.392C139.951 244.392 139.913 244.384 139.877 244.369C139.451 244.178 139.064 243.91 138.734 243.578C137.482 242.396 136.3 241.142 135.193 239.822C132.305 236.487 128.455 231.64 124.14 225.924H124.458C124.035 226.507 123.686 227.139 123.418 227.807C123.1 228.494 122.808 229.216 122.559 229.938C121.983 231.399 121.433 232.912 120.9 234.45C119.989 237.132 119.112 239.762 118.519 242.263L118.391 242.796L118.115 242.332C114.966 236.949 112.962 230.974 112.228 224.781C112.013 222.982 111.912 221.17 111.927 219.358C111.927 218.722 111.927 218.232 111.987 217.906C111.989 217.736 112.003 217.566 112.03 217.398C112.05 217.567 112.05 217.737 112.03 217.906C112.03 218.232 112.03 218.722 112.03 219.358C112.072 221.161 112.212 222.96 112.452 224.747C113.276 230.878 115.322 236.782 118.468 242.108L118.064 242.169C118.666 239.59 119.534 237.012 120.453 234.304C120.986 232.757 121.536 231.236 122.121 229.775C122.413 229.044 122.705 228.331 123.023 227.626C123.312 226.907 123.696 226.231 124.166 225.615L124.329 225.426L124.493 225.641C128.79 231.374 132.589 236.247 135.408 239.616C136.818 241.335 137.987 242.616 138.846 243.441C139.152 243.783 139.512 244.074 139.912 244.3C140.058 244.36 140.153 244.3 140.17 244.214C140.187 244.128 140.17 244.102 140.187 244.111Z" fill="#263238"/>
<path d="M171.342 216.279C171.375 216.432 171.39 216.588 171.385 216.743C171.385 217.053 171.385 217.5 171.385 218.093C171.385 219.262 171.316 220.981 171.127 223.112C170.783 227.41 169.769 233.34 168.695 240.181L168.617 240.688L168.308 240.276C166.77 238.239 165.283 235.979 163.744 233.589C162.541 231.75 161.355 229.962 160.109 228.303L160.409 228.346C154.47 232.644 149.133 236.228 145.652 239.236C143.89 240.697 142.524 241.926 141.595 242.786L140.538 243.774C140.421 243.895 140.295 244.007 140.16 244.109C140.16 244.109 140.255 243.963 140.478 243.722C140.702 243.482 141.045 243.121 141.492 242.674C142.352 241.814 143.727 240.517 145.472 239.013C148.91 235.944 154.221 232.3 160.16 227.985L160.332 227.865L160.461 228.037C161.716 229.704 162.919 231.475 164.122 233.349C165.652 235.703 167.131 237.99 168.652 240.018L168.265 240.113C169.374 233.237 170.431 227.349 170.844 223.086C171.067 220.963 171.187 219.262 171.23 218.084C171.23 217.5 171.23 217.053 171.23 216.743C171.252 216.585 171.289 216.43 171.342 216.279Z" fill="#263238"/>
<path d="M193.618 281.204C193.618 281.325 186.802 280.8 178.422 280.035C170.042 279.271 163.252 278.549 163.27 278.42C163.287 278.291 170.077 278.824 178.465 279.589C186.854 280.353 193.626 281.075 193.618 281.204Z" fill="#263238"/>
<path d="M118.311 177.586C115.81 170.203 113.343 162.768 112.149 155.076C110.954 147.384 111.1 139.339 113.721 132.008C114.117 130.89 117.538 123.413 118.706 123.525C119.566 123.602 117.477 130.555 117.907 131.26C122.05 138.136 123.253 146.524 122.703 154.56C122.096 162.369 120.623 170.086 118.311 177.569" fill="#263238"/>
<path d="M181.734 144.848C181.387 136.079 177.752 127.762 171.553 121.551C165.353 115.341 157.042 111.691 148.274 111.329L146.469 111.26C126.933 111.595 116.31 128.363 117.178 147.882L119 212.48L140.161 241.806L162.507 217.526C162.507 212.025 162.507 210.366 162.55 210.366C162.593 210.366 181.398 208.226 182.404 189.507C182.911 180.465 182.395 161.763 181.734 144.848Z" fill="#FFBF9D"/>
<path d="M162.565 210.367C162.565 210.367 150.73 210.573 138.5 202.15C138.5 202.15 143.786 216.469 162.565 215.558V210.367Z" fill="#FF9A6C"/>
<path d="M172.991 161.608C172.964 162.305 172.668 162.963 172.164 163.444C171.66 163.925 170.989 164.192 170.293 164.187C169.952 164.197 169.612 164.14 169.294 164.018C168.975 163.896 168.684 163.713 168.437 163.478C168.19 163.243 167.992 162.961 167.855 162.649C167.718 162.337 167.643 162.001 167.637 161.66C167.661 160.965 167.956 160.306 168.458 159.825C168.961 159.343 169.631 159.077 170.327 159.082C170.668 159.07 171.009 159.127 171.328 159.248C171.648 159.369 171.94 159.553 172.188 159.788C172.436 160.023 172.634 160.305 172.772 160.617C172.91 160.93 172.985 161.267 172.991 161.608Z" fill="#263238"/>
<path d="M177.409 152.953C177.057 153.289 175.097 151.707 172.252 151.595C169.407 151.484 167.207 152.833 166.906 152.455C166.76 152.292 167.121 151.673 168.075 151.045C169.357 150.234 170.858 149.838 172.373 149.911C173.869 149.97 175.307 150.503 176.481 151.432C177.306 152.163 177.572 152.807 177.409 152.953Z" fill="#263238"/>
<path d="M147.334 161.608C147.31 162.304 147.015 162.962 146.513 163.444C146.01 163.925 145.34 164.192 144.644 164.187C144.303 164.197 143.964 164.14 143.645 164.018C143.327 163.896 143.036 163.713 142.789 163.478C142.542 163.243 142.344 162.961 142.207 162.649C142.069 162.337 141.995 162.001 141.988 161.66C142.013 160.966 142.306 160.309 142.807 159.828C143.307 159.346 143.976 159.079 144.67 159.082C145.011 159.07 145.352 159.127 145.671 159.248C145.991 159.369 146.283 159.553 146.531 159.788C146.779 160.023 146.977 160.305 147.115 160.617C147.253 160.93 147.328 161.267 147.334 161.608Z" fill="#263238"/>
<path d="M149.784 152.953C149.432 153.289 147.472 151.707 144.627 151.595C141.782 151.484 139.582 152.833 139.281 152.455C139.135 152.292 139.496 151.673 140.45 151.045C141.732 150.234 143.233 149.838 144.748 149.911C146.244 149.97 147.682 150.503 148.856 151.432C149.672 152.163 149.947 152.807 149.784 152.953Z" fill="#263238"/>
<path d="M158.58 174.999C158.58 174.836 160.376 174.595 163.29 174.346C164.029 174.303 164.734 174.183 164.871 173.684C164.967 172.93 164.829 172.165 164.476 171.492L162.533 165.803C159.843 157.715 157.926 151.071 158.236 150.968C158.545 150.865 161.012 157.328 163.694 165.424C164.347 167.418 164.957 169.318 165.55 171.14C165.97 172.046 166.061 173.07 165.808 174.036C165.691 174.292 165.517 174.517 165.3 174.694C165.082 174.871 164.827 174.996 164.553 175.059C164.142 175.157 163.72 175.2 163.298 175.188C160.393 175.222 158.588 175.162 158.58 174.999Z" fill="#263238"/>
<path d="M149.775 146.628C149.388 147.358 146.939 146.525 143.913 146.379C140.888 146.232 138.335 146.697 138.069 145.94C137.957 145.571 138.507 144.926 139.607 144.359C141.025 143.679 142.595 143.383 144.163 143.499C145.718 143.572 147.225 144.058 148.529 144.909C149.517 145.579 149.956 146.284 149.775 146.628Z" fill="#263238"/>
<path d="M177.89 142.098C177.271 142.734 174.942 141.995 172.123 141.883C169.304 141.771 166.906 142.192 166.381 141.487C166.149 141.152 166.536 140.508 167.602 139.915C169.064 139.208 170.68 138.883 172.302 138.968C173.923 139.054 175.496 139.548 176.876 140.405C177.847 141.101 178.156 141.78 177.89 142.098Z" fill="#263238"/>
<path d="M118.141 161.807C117.823 161.661 105.43 157.509 105.309 170.29C105.189 183.07 118.081 180.603 118.107 180.217C118.133 179.83 118.141 161.807 118.141 161.807Z" fill="#FFBF9D"/>
<path d="M114.235 175.326C114.175 175.326 114.011 175.481 113.633 175.653C113.083 175.88 112.465 175.88 111.914 175.653C110.565 175.146 109.448 172.98 109.405 170.668C109.383 169.569 109.609 168.479 110.066 167.479C110.19 167.074 110.411 166.704 110.711 166.405C111.01 166.105 111.38 165.884 111.785 165.76C112.043 165.697 112.315 165.725 112.555 165.84C112.794 165.954 112.987 166.148 113.1 166.388C113.264 166.749 113.178 167.007 113.247 167.024C113.315 167.041 113.53 166.809 113.427 166.285C113.359 165.966 113.183 165.681 112.929 165.477C112.578 165.209 112.138 165.086 111.699 165.133C111.172 165.233 110.679 165.467 110.266 165.811C109.854 166.156 109.537 166.6 109.345 167.101C108.79 168.207 108.513 169.431 108.537 170.668C108.597 173.246 109.895 175.679 111.742 176.237C112.086 176.339 112.447 176.363 112.801 176.308C113.155 176.253 113.492 176.12 113.788 175.919C114.209 175.636 114.278 175.352 114.235 175.326Z" fill="#FF9A6C"/>
<path d="M173.449 123.602C175.521 122.459 169.298 115.738 164.201 113.426C156.466 109.919 144.734 107.762 137.626 109.773C129.031 112.197 121.958 116.451 117.661 124.23C113.363 132.008 111.747 141.084 111.988 150.014C112.065 152.721 112.34 155.549 113.793 157.844C115.581 160.68 119.01 162.468 118.864 166.378C118.815 167.085 118.907 167.795 119.134 168.466C119.361 169.137 119.719 169.757 120.187 170.289C122.534 172.79 125.404 170.444 126.728 168.097C129.547 163.078 129.865 157.079 130.114 151.329C130.295 147.238 130.458 143.061 129.315 139.133C128.688 136.993 127.682 134.973 127.175 132.807C126.668 130.641 126.728 128.175 128.086 126.404C128.398 126.022 128.747 125.671 129.126 125.355C130.914 123.796 133.085 122.74 135.415 122.298C137.746 121.855 140.153 122.041 142.388 122.837C149.607 125.416 161.932 129.215 165.155 126.765C169.797 123.25 170.905 120.946 170.905 120.946L173.449 123.602Z" fill="#263238"/>
<path d="M149.537 176.795C149.984 176.795 150.001 179.709 152.528 181.788C155.055 183.868 158.192 183.507 158.218 183.937C158.261 184.126 157.521 184.513 156.198 184.556C154.472 184.591 152.789 184.016 151.445 182.932C150.16 181.886 149.331 180.382 149.133 178.737C149.013 177.491 149.313 176.795 149.537 176.795Z" fill="#263238"/>
<path d="M74.5381 235.309C74.5381 235.309 63.4681 244.264 60.606 257.389C57.7439 270.513 42.0241 330.908 41.6287 339.813C41.2334 348.717 41.6287 367.685 58.0877 368.072C74.5467 368.459 116.206 349.258 116.206 349.258L108.255 325.193L82.282 325.906L74.5381 235.309Z" fill="#E0E0E0"/>
<path d="M108.263 325.158C108.054 325.206 107.841 325.235 107.627 325.244L105.805 325.381L99.0754 325.819L89.0969 326.404L83.2094 326.739C81.1099 326.813 79.0172 327.019 76.9438 327.358C75.8591 327.53 74.754 327.53 73.6692 327.358C72.6121 327.229 71.5893 327.04 70.5837 326.945C68.641 326.819 66.6904 326.99 64.7994 327.452C61.5893 328.28 58.6206 329.856 56.1358 332.051C54.4463 333.52 52.9605 335.208 51.7181 337.07C51.2712 337.723 50.9532 338.248 50.7469 338.608C50.6495 338.801 50.5313 338.983 50.3945 339.15C50.4637 338.945 50.556 338.749 50.6696 338.566C50.9378 338.018 51.2392 337.487 51.572 336.975C52.7756 335.063 54.2393 333.328 55.921 331.819C58.4274 329.556 61.4393 327.926 64.7048 327.066C66.6386 326.578 68.6362 326.393 70.6267 326.516C71.658 326.61 72.6808 326.799 73.7294 326.928C74.7661 327.087 75.8211 327.087 76.8579 326.928C78.9534 326.582 81.0694 326.376 83.1922 326.309L89.0797 326.009L99.0582 325.51L105.797 325.218L107.627 325.158C107.839 325.143 108.051 325.143 108.263 325.158Z" fill="#263238"/>
<path d="M82.9983 325.854C82.9507 325.663 82.9219 325.467 82.9123 325.27C82.8693 324.831 82.8092 324.273 82.7404 323.551C82.6029 322.03 82.3966 319.915 82.156 317.337C81.6489 312.085 80.8668 304.849 79.9815 296.847C79.0962 288.845 78.3657 281.651 77.9789 276.365C77.764 273.735 77.6093 271.613 77.532 270.134C77.532 269.438 77.4718 268.871 77.446 268.415C77.4347 268.218 77.4347 268.02 77.446 267.822C77.501 268.013 77.5327 268.209 77.5406 268.407C77.5835 268.836 77.6351 269.395 77.7039 270.126C77.85 271.638 78.0477 273.753 78.2969 276.34C78.7954 281.583 79.5861 288.828 80.4628 296.83C81.3395 304.831 82.0786 312.077 82.5084 317.328C82.7232 319.958 82.8693 322.09 82.9553 323.559C82.9553 324.264 83.0155 324.823 83.0326 325.278C83.0428 325.471 83.0312 325.664 82.9983 325.854Z" fill="#263238"/>
<path d="M114.633 349.973C114.508 350.067 114.376 350.15 114.237 350.222L113.06 350.858C112.037 351.408 110.533 352.147 108.651 353.024C104.895 354.743 99.6088 357.029 93.6698 359.221C87.7308 361.412 82.2731 363.174 78.2766 364.309C76.2826 364.885 74.6582 365.297 73.5322 365.572L72.2258 365.864C72.075 365.908 71.9188 365.932 71.7617 365.933C71.9037 365.863 72.0538 365.811 72.2086 365.778L73.4893 365.4C74.598 365.082 76.2138 364.618 78.1906 364.008C82.1528 362.796 87.5847 361 93.5151 358.8C99.4455 356.599 104.688 354.416 108.522 352.74C110.412 351.881 111.96 351.202 112.982 350.703L114.194 350.136C114.331 350.06 114.479 350.005 114.633 349.973Z" fill="#263238"/>
<path d="M208.524 254.209C208.535 254.28 208.535 254.353 208.524 254.424C208.524 254.587 208.524 254.793 208.463 255.043C208.403 255.627 208.317 256.426 208.214 257.432C207.991 259.503 207.63 262.494 207.166 266.19C206.237 273.582 204.836 283.784 203.109 295.017C201.381 306.25 199.671 316.409 198.451 323.758C197.815 327.402 197.29 330.359 196.929 332.447C196.749 333.444 196.603 334.235 196.491 334.802C196.439 335.051 196.396 335.258 196.371 335.421C196.359 335.492 196.339 335.561 196.31 335.627C196.298 335.556 196.298 335.484 196.31 335.412C196.31 335.241 196.362 335.043 196.396 334.794C196.482 334.209 196.603 333.418 196.749 332.421C197.084 330.324 197.548 327.359 198.124 323.706C199.301 316.349 200.943 306.19 202.662 294.948C204.381 283.706 205.842 273.53 206.899 266.182C207.398 262.52 207.802 259.546 208.085 257.441C208.223 256.444 208.335 255.644 208.421 255.068C208.421 254.819 208.489 254.613 208.515 254.45C208.504 254.37 208.507 254.288 208.524 254.209Z" fill="#263238"/>
<path d="M208.194 372.704C208.038 372.725 207.879 372.725 207.722 372.704L206.364 372.584C205.186 372.472 203.493 372.249 201.405 371.914C195.963 371.019 190.592 369.738 185.332 368.08C182.255 367.101 179.316 366.043 176.737 365.004C174.159 363.964 171.847 362.915 169.956 361.97C169.002 361.514 168.151 361.067 167.378 360.672C166.604 360.276 165.994 359.933 165.487 359.632L164.309 358.944C164.168 358.87 164.035 358.781 163.914 358.678C164.07 358.724 164.219 358.788 164.361 358.867L165.573 359.477C166.089 359.761 166.733 360.079 167.489 360.448C168.246 360.818 169.097 361.248 170.068 361.677C171.967 362.588 174.279 363.568 176.866 364.617C179.453 365.665 182.35 366.679 185.418 367.651C190.659 369.3 195.998 370.618 201.405 371.596C203.484 371.974 205.169 372.249 206.338 372.412L207.679 372.618C207.854 372.619 208.028 372.648 208.194 372.704Z" fill="#263238"/>
<g opacity="0.2">
<path d="M168.471 240.603C165.42 236.916 163.375 232.18 160.788 228.166C153.335 232.689 146.416 238.037 140.16 244.109C146.177 240.671 152.193 237.5 158.046 233.796L168.918 247.874C169.142 243.324 169.371 238.775 169.606 234.225L168.471 240.603Z" fill="black"/>
</g>
<g opacity="0.2">
<path d="M200.166 312.274C200.295 311.673 200.424 311.045 200.552 310.418L199.805 312.274H200.166Z" fill="black"/>
</g>
<g opacity="0.2">
<path d="M207.438 261.334C205.479 276.461 203.691 295.215 200.562 310.419C203.571 302.881 206.501 295.283 208.16 287.35C209.948 278.756 210.197 269.662 207.438 261.334Z" fill="black"/>
</g>
<path d="M111.12 310.238C111.12 310.238 105.877 312.92 105.103 315.086C104.663 316.543 104.663 318.098 105.103 319.555L107.94 328.88V338.584C107.94 338.584 110.217 348.442 112.383 349.448C114.549 350.453 118.399 350.307 120.978 346.25C122.449 343.945 123.605 341.454 124.416 338.842L128.885 320.32L130.166 310.866L118.03 317.123L114.592 321.833L111.24 316.487C111.24 316.487 113.973 313.805 113.758 312.138C113.543 310.47 111.12 310.238 111.12 310.238Z" fill="#FFBF9D"/>
<path d="M108.282 317.234C108.282 317.105 108.995 317.113 109.812 316.941C110.628 316.77 111.264 316.486 111.333 316.598C111.402 316.709 110.809 317.191 109.906 317.38C109.004 317.569 108.256 317.345 108.282 317.234Z" fill="#FF9A6C"/>
<path d="M113.765 342.89L114.624 303.526C114.623 302.197 115.134 300.92 116.052 299.959C116.969 298.998 118.222 298.429 119.549 298.369L186.752 296.891C187.546 296.9 188.329 297.09 189.039 297.447C189.749 297.804 190.368 298.318 190.85 298.95C191.331 299.582 191.662 300.316 191.817 301.096C191.973 301.875 191.948 302.68 191.745 303.448L181.672 346.285C181.425 347.436 180.786 348.465 179.865 349.197C178.943 349.93 177.795 350.319 176.618 350.299L118.629 348.305C117.267 348.229 115.99 347.617 115.079 346.602C114.167 345.587 113.694 344.252 113.765 342.89Z" fill="#263238"/>
<path d="M156.186 308.776L155.653 308.691C154.958 308.648 154.272 308.875 153.739 309.324C153.206 309.774 152.867 310.41 152.79 311.103C152.713 311.796 152.906 312.491 153.328 313.046C153.75 313.601 154.369 313.972 155.057 314.083C155.745 314.194 156.449 314.036 157.024 313.642C157.599 313.248 158.001 312.648 158.146 311.967C158.291 311.285 158.168 310.574 157.804 309.98C157.439 309.386 156.86 308.955 156.186 308.776Z" fill="white"/>
<path d="M184.552 301.309C184.552 301.438 170.181 301.782 152.45 302.082C134.719 302.383 120.348 302.538 120.34 302.409C120.331 302.28 134.71 301.945 152.441 301.636C170.172 301.326 184.552 301.189 184.552 301.309Z" fill="#455A64"/>
<path d="M131.866 310.376C131.866 310.376 135.596 306.655 140.031 309.138C144.466 311.622 159.387 322.271 164.535 323.689C169.683 325.108 174.849 326.182 178.734 323.689C182.618 321.197 185.481 318.008 185.661 314.82C185.842 311.631 187.784 304.695 192.047 304.506L194.178 306.105C194.178 306.105 193.319 316.418 193.319 320.836C193.319 325.254 189.383 331.502 189.383 331.502L186.521 336.41L187.99 341.816C187.99 341.816 186.211 349.981 181.776 354.244C177.341 358.507 168.609 358.679 168.609 358.679L140.246 340.931L113.8 333.118C113.8 333.118 114.505 329.568 118.097 329.388C121.69 329.207 127.509 331.605 127.509 331.605L113.766 321.188C114.002 320.107 114.658 319.163 115.589 318.564C116.52 317.964 117.651 317.759 118.733 317.991C123.031 318.524 138.261 327.445 138.261 327.445L122.67 311.803C122.67 311.803 122.317 307.72 126.048 307.505C127.175 307.495 128.288 307.749 129.299 308.248C130.31 308.746 131.189 309.475 131.866 310.376Z" fill="#FFBF9D"/>
<path d="M153.903 327.686C153.563 327.543 153.24 327.361 152.941 327.144C152.331 326.775 151.463 326.225 150.362 325.528C148.239 324.136 145.309 322.176 142.197 319.856C139.515 317.899 136.965 315.765 134.565 313.47C133.654 312.61 132.958 311.811 132.502 311.27C132.251 311.006 132.027 310.718 131.832 310.41C132.125 310.639 132.393 310.899 132.631 311.184C133.121 311.691 133.852 312.421 134.78 313.272C137.231 315.489 139.796 317.578 142.464 319.529C145.566 321.85 148.48 323.827 150.543 325.305L153.001 327.024C153.325 327.211 153.628 327.433 153.903 327.686Z" fill="#FF9A6C"/>
<path d="M144.484 331.561C143.034 331.027 141.677 330.27 140.461 329.318C139.169 328.486 138.01 327.463 137.023 326.284C137.118 326.19 138.691 327.505 140.754 328.957C142.816 330.41 144.544 331.45 144.484 331.561Z" fill="#FF9A6C"/>
<path d="M140.237 338.645C137.72 337.524 135.264 336.27 132.88 334.889C130.427 333.641 128.045 332.258 125.746 330.746C128.26 331.868 130.713 333.122 133.095 334.502C135.551 335.749 137.935 337.132 140.237 338.645Z" fill="#FF9A6C"/>
<path d="M189.547 220.942L220.61 221.462L205.474 202L189.547 220.942Z" fill="#01B0F1"/>
<path d="M203.976 236.205H198.715V241.466H203.976V236.205Z" fill="#01B0F1"/>
<path d="M208.492 241.527H203.977V246.042H208.492V241.527Z" fill="#01B0F1"/>
<path d="M202.755 247.037H198.715V251.085H202.755V247.037Z" fill="#01B0F1"/>
<path d="M212.528 237.465H208.488V241.513H212.528V237.465Z" fill="#01B0F1"/>
<path d="M198.715 241.965H195.828V244.852H198.715V241.965Z" fill="#01B0F1"/>
<path d="M206.946 253.113H204.059V256H206.946V253.113Z" fill="#01B0F1"/>
<path d="M211.375 246.473H208.488V249.36H211.375V246.473Z" fill="#01B0F1"/>
<path d="M212.582 218.673L196.511 218.59L196.391 237.54H212.582V218.673ZM206.951 234.178H204.064V231.291H206.951V234.178Z" fill="#01B0F1"/>
</svg>
