<svg width="100" height="100" viewBox="0 0 100 100" fill="none" xmlns="http://www.w3.org/2000/svg">
<path fill-rule="evenodd" clip-rule="evenodd" d="M62.4235 66.0717C62.9135 65.6696 63.535 65.4644 64.1674 65.496C64.7998 65.5276 65.3979 65.7937 65.8456 66.2426L77.047 77.4477L77.0502 77.4446C77.5253 77.9273 77.7915 78.5782 77.791 79.2564C77.7906 79.9346 77.5236 80.5852 77.048 81.0672L77.0512 81.0705L70.8883 87.2508C70.4093 87.7306 69.7601 88 69.0832 88C68.4063 88 67.7571 87.7306 67.2782 87.2508L56.0766 76.0458L56.0736 76.0491C55.6262 75.5952 55.3627 74.991 55.3342 74.3535C55.3056 73.716 55.5141 73.0905 55.9191 72.5984L52.2225 68.8908C51.9886 69.0651 51.752 69.2364 51.5128 69.4047C51.2026 69.6234 50.8255 69.7254 50.4477 69.6927C50.0699 69.66 49.7158 69.4947 49.4476 69.2259L49.4456 69.2277L46.5129 66.2865C44.5501 67.414 42.4514 68.2851 40.2681 68.8784V73.0433C40.2681 73.4355 40.126 73.8144 39.8683 74.1094C39.6107 74.4044 39.2549 74.5955 38.8672 74.6472C35.2716 75.272 31.5952 75.2682 28.0009 74.6361C27.6271 74.5704 27.2884 74.3747 27.0443 74.0834C26.8001 73.7921 26.6662 73.4238 26.666 73.0433V68.8837C24.4819 68.2913 22.3837 67.4174 20.4237 66.2839L17.4873 69.2277C17.2008 69.5151 16.817 69.6837 16.4122 69.7003C16.0073 69.7169 15.6111 69.5801 15.3023 69.3171C12.343 67.2233 9.76808 64.6307 7.69203 61.6546C7.47391 61.3435 7.37222 60.9653 7.40486 60.5864C7.43751 60.2075 7.60241 59.8523 7.87052 59.5833L7.8685 59.5815L10.8015 56.6403C9.67733 54.6718 8.80877 52.5671 8.21701 50.3776H4.0638C3.67281 50.3776 3.29512 50.2352 3.00094 49.9769C2.70677 49.7187 2.51613 49.362 2.46447 48.9733C1.84147 45.3672 1.84523 41.6802 2.47556 38.0753C2.54102 37.7005 2.73613 37.3608 3.02661 37.1159C3.31708 36.871 3.68433 36.7366 4.0638 36.7364H8.21701C8.80881 34.5469 9.67737 32.4423 10.8015 30.4737L7.86891 27.5315C7.58853 27.2503 7.42122 26.8755 7.3989 26.4784C7.37658 26.0814 7.50082 25.6901 7.7479 25.3791C9.84361 22.3943 12.4419 19.7985 15.4263 17.7083C15.7359 17.4914 16.1117 17.3908 16.4879 17.4241C16.864 17.4574 17.2165 17.6225 17.4834 17.8903L17.4879 17.8859L20.4233 20.8297C22.3833 19.696 24.4815 18.8219 26.6655 18.2293V14.0699C26.6655 13.6777 26.8075 13.2988 27.0652 13.0037C27.3229 12.7086 27.6787 12.5175 28.0664 12.4658C31.662 11.841 35.3383 11.8448 38.9326 12.4771C39.3064 12.5428 39.6451 12.7384 39.8893 13.0297C40.1335 13.321 40.2675 13.6893 40.2677 14.0699V18.2348C42.4511 18.828 44.5499 19.699 46.5129 20.8265L49.4456 17.8853C49.726 17.6041 50.0998 17.4363 50.4956 17.4139C50.8915 17.3915 51.2818 17.5161 51.5919 17.7639C54.5683 19.8656 57.1568 22.4714 59.241 25.4644C59.4572 25.7749 59.5576 26.1518 59.5244 26.5291C59.4912 26.9063 59.3266 27.2598 59.0595 27.5275L59.0639 27.5319L55.2348 31.3722C55.0858 31.526 54.9078 31.6486 54.7112 31.7329C54.5145 31.8171 54.3031 31.8613 54.0892 31.8629C53.8753 31.8645 53.6633 31.8234 53.4654 31.7421C53.2675 31.6607 53.0877 31.5408 52.9365 31.3891C52.7853 31.2374 52.6656 31.0572 52.5845 30.8587C52.5034 30.6603 52.4624 30.4476 52.4639 30.2332C52.4655 30.0187 52.5095 29.8067 52.5935 29.6094C52.6775 29.4122 52.7998 29.2337 52.9532 29.0842L55.8058 26.2235C54.3355 24.3306 52.6365 22.6283 50.7476 21.1556L47.9011 24.01L47.8991 24.008C47.6392 24.2685 47.2984 24.432 46.9331 24.4715C46.5678 24.5109 46.2 24.424 45.8908 24.225C43.5944 22.7407 41.051 21.6817 38.3816 21.0985C38.0065 21.0339 37.6662 20.8384 37.421 20.5466C37.1757 20.2548 37.0412 19.8854 37.0412 19.5037V15.4608C34.6674 15.1612 32.2655 15.1612 29.8916 15.4608V19.4997H29.8904C29.8903 19.8691 29.7641 20.2274 29.5327 20.5149C29.3013 20.8024 28.9787 21.0017 28.6186 21.0797C27.2795 21.37 25.9692 21.7806 24.7036 22.3068C23.461 22.8242 22.2658 23.4491 21.1314 24.1746C20.8206 24.4035 20.4384 24.5132 20.0539 24.4838C19.6695 24.4544 19.3082 24.2879 19.0356 24.0145L16.183 21.1533C14.2956 22.6278 12.5981 24.3317 11.1295 26.2257L13.9764 29.0806L13.9742 29.0826C14.234 29.3432 14.3971 29.6851 14.4364 30.0515C14.4758 30.4179 14.389 30.7867 14.1906 31.0969C12.7106 33.3998 11.6548 35.9504 11.0732 38.6273C11.0088 39.0035 10.8138 39.3447 10.5228 39.5907C10.2318 39.8367 9.86337 39.9716 9.48276 39.9715H5.45116C5.15207 42.3521 5.15207 44.7609 5.45116 47.1415H9.48235V47.1429C9.85073 47.1432 10.2079 47.2698 10.4946 47.5019C10.7812 47.7339 10.9801 48.0573 11.0581 48.4184C11.6295 51.0863 12.6717 53.6303 14.1355 55.9306C14.3638 56.2422 14.4731 56.6256 14.4439 57.0111C14.4146 57.3967 14.2486 57.759 13.976 58.0324L11.1295 60.8873C12.5981 62.7814 14.2956 64.4852 16.183 65.9597L19.0356 63.0992L19.0376 63.1012C19.2975 62.8407 19.6383 62.6772 20.0036 62.6378C20.3689 62.5983 20.7367 62.6852 21.0459 62.8842C22.2056 63.633 23.4297 64.2765 24.7036 64.807C25.948 65.3243 27.2357 65.7299 28.5515 66.0191C28.9265 66.0838 29.2667 66.2793 29.5119 66.5711C29.7572 66.8629 29.8917 67.2323 29.8916 67.6139V71.6522C32.2655 71.9519 34.6674 71.9519 37.0412 71.6522V67.6089H37.0424C37.0427 67.2395 37.169 66.8813 37.4004 66.5939C37.6318 66.3065 37.9542 66.1071 38.3142 66.0289C40.9746 65.456 43.5114 64.4108 45.805 62.9426C46.1158 62.7137 46.4981 62.6039 46.8826 62.6333C47.2671 62.6626 47.6284 62.8291 47.9011 63.1026L50.7476 65.9581C52.636 64.4849 54.3351 62.7826 55.8058 60.8901L52.9532 58.0296L52.9552 58.0276C52.6955 57.7669 52.5325 57.4251 52.4932 57.0588C52.4538 56.6924 52.5406 56.3236 52.739 56.0135C53.4857 54.8506 54.1273 53.6232 54.6562 52.3458C55.1721 51.0977 55.5765 49.8063 55.8647 48.4865C55.9291 48.1103 56.1241 47.7691 56.4151 47.5231C56.7061 47.2771 57.0745 47.1422 57.4551 47.1423H62.8692C63.2972 47.1423 63.7075 47.3128 64.0101 47.6162C64.3127 47.9197 64.4827 48.3312 64.4827 48.7604C64.4827 49.1895 64.3127 49.6011 64.0101 49.9045C63.7075 50.208 63.2972 50.3784 62.8692 50.3784H58.7213C58.1308 52.5688 57.2595 54.673 56.1291 56.6385L59.0645 59.5823C59.351 59.8696 59.5192 60.2545 59.5358 60.6605C59.5523 61.0665 59.4159 61.4638 59.1537 61.7736C59.013 61.9726 58.8706 62.1696 58.7263 62.3646L62.4235 66.0717ZM91.6491 23.291C86.5349 23.291 83.5359 29.0598 86.4092 33.2588L76.4581 44.7709C75.2402 44.1687 73.8618 43.9739 72.5254 44.2149C71.1889 44.456 69.9647 45.1203 69.0324 46.1104L58.5494 40.3524C59.8027 35.3139 54.8266 30.9826 50.0472 32.884C48.2024 30.0014 45.6421 27.6493 42.6174 26.0583C39.5927 24.4674 36.2076 23.6923 32.7941 23.8091C29.3806 23.926 26.056 24.9307 23.1465 26.7247C20.2371 28.5187 17.8426 31.0404 16.198 34.0424C14.5535 37.0444 13.7153 40.4236 13.7658 43.8485C13.8163 47.2733 14.7537 50.6262 16.4861 53.5781C18.2185 56.53 20.6863 58.9796 23.6474 60.6866C26.6085 62.3936 29.9612 63.2992 33.3767 63.3148C43.6783 63.4074 52.2873 55.3752 53.101 45.1351C54.5921 44.9676 55.9755 44.2745 57.0046 43.1795L67.4875 48.9371C67.2542 49.8762 67.2371 50.8562 67.4377 51.8028C67.6382 52.7495 68.0511 53.6379 68.6449 54.4007C69.2388 55.1635 69.9981 55.7807 70.8652 56.2054C71.7323 56.6302 72.6845 56.8513 73.6495 56.8521C78.7639 56.8521 81.7627 51.0829 78.8893 46.8842L88.8397 35.3728C93.028 37.4486 98 34.3937 98 29.6598C97.9999 27.9708 97.3308 26.3509 96.1398 25.1565C94.9488 23.9621 93.3334 23.2911 91.6491 23.291ZM93.8581 27.4445C94.4438 28.0321 94.7729 28.829 94.7729 29.6598C94.7729 30.4907 94.4438 31.2876 93.8581 31.8752C91.8957 33.8431 88.5252 32.4431 88.5252 29.6598C88.5252 26.8766 91.8957 25.4768 93.8581 27.4445ZM49.9119 44.673C49.6169 44.5475 49.3319 44.3998 49.0594 44.231L44.3431 48.7521C45.4151 50.1462 46.2094 51.7343 46.6826 53.4297C48.581 50.8856 49.7025 47.8437 49.9111 44.673H49.9119ZM46.8336 41.898C46.2194 40.7883 45.9499 39.5199 46.0595 38.2556C46.1691 36.9912 46.653 35.7885 47.4489 34.8018C41.8717 25.8465 29.335 24.3316 21.8153 31.8727C19.0178 34.6787 17.3203 38.4004 17.0329 42.3579C16.7456 46.3153 17.8875 50.2444 20.2501 53.4272C20.8158 51.4131 21.8309 49.5543 23.2185 47.9915C24.6061 46.4287 26.33 45.2028 28.2596 44.4066C27.2668 43.3807 26.5973 42.0841 26.3349 40.6789C26.0725 39.2736 26.2288 37.822 26.7841 36.5053C27.3395 35.1886 28.2694 34.0652 29.4577 33.2753C30.646 32.4855 32.04 32.0643 33.4656 32.0643C34.8912 32.0643 36.2852 32.4855 37.4735 33.2753C38.6618 34.0652 39.5917 35.1886 40.1471 36.5053C40.7025 37.822 40.8587 39.2736 40.5963 40.6789C40.3339 42.0841 39.6645 43.3807 38.6716 44.4066C39.9047 44.9155 41.0574 45.6016 42.0935 46.4433L46.833 41.8988L46.8336 41.898ZM54.5959 36.5914C52.6337 34.6234 49.2631 36.0235 49.2631 38.8065C49.2631 41.5896 52.6337 42.9896 54.5959 41.0218C55.1813 40.4343 55.5102 39.6377 55.5102 38.8071C55.5102 37.9765 55.1813 37.1799 54.5959 36.5924V36.5914ZM75.8571 48.2685C73.8947 46.3005 70.5244 47.7007 70.5244 50.4838C70.5244 53.2669 73.8947 54.6669 75.8571 52.6989C76.4425 52.1114 76.7714 51.3148 76.7714 50.4842C76.7714 49.6536 76.4425 48.857 75.8571 48.2695V48.2685ZM33.4662 50.5785C34.6419 50.5766 35.7948 50.9036 36.7954 51.5228L39.7431 48.6965C38.2372 47.572 36.4585 46.8727 34.5918 46.6712C32.7251 46.4697 30.8387 46.7733 29.1286 47.5505C27.4186 48.3277 25.9474 49.5501 24.868 51.0907C23.7885 52.6312 23.1403 54.4336 22.9907 56.3104C24.3237 57.4151 25.8226 58.3011 27.4319 58.9355C27.1199 57.9789 27.0381 56.9618 27.1933 55.9674C27.3486 54.9731 27.7364 54.0297 28.325 53.2145C28.9136 52.3993 29.6863 51.7354 30.5799 51.2773C31.4735 50.8191 32.4626 50.5796 33.4662 50.5785ZM39.0197 53.855C39.4442 54.623 39.7061 55.4706 39.7889 56.3447C39.8718 57.2188 39.7738 58.1007 39.5011 58.9351C41.1103 58.3009 42.6091 57.415 43.9419 56.3104C43.7926 54.3944 43.1206 52.5566 41.9995 50.9979L39.0197 53.8548V53.855ZM35.6752 54.7328C33.7131 52.7651 30.3426 54.1649 30.3426 56.9481C30.3426 59.7377 33.7187 61.1255 35.6752 59.1634C36.261 58.5759 36.5901 57.779 36.5901 56.9481C36.5901 56.1173 36.261 55.3204 35.6752 54.7328ZM33.4567 43.3795C37.1053 43.3561 38.8134 38.9906 36.3142 36.4826C33.7835 33.9449 29.4368 35.7506 29.4368 39.339C29.4367 40.4089 29.8598 41.4351 30.6133 42.1924C31.3668 42.9498 32.3891 43.3764 33.4559 43.3787L33.4567 43.3795ZM54.7224 66.8217L58.1902 70.2995L60.1332 68.351L56.6643 64.8721L54.7217 66.8211L54.7224 66.8217ZM64.0477 69.0014L58.8259 74.2381L69.0766 84.4925L74.2981 79.256L64.0477 69.0014Z" fill="#01B0F1"/>
</svg>
