<svg width="100" height="100" viewBox="0 0 100 100" fill="none" xmlns="http://www.w3.org/2000/svg">
<path d="M28 49V72H51L46.2033 67.2033H32.7967V53.7967L28 49Z" fill="#01B0F1"/>
<path d="M92.2597 85.6998L85.0773 78.382V84.9705H15.0052V74.5345H20.0103V70.511H15.0052V53.7882H20.0103V49.7646H15.0052V33.6705H20.0103V29.647H15.0052V15.5898L54.8962 55.4479V48.3564L14.2794 7.74389C13.9294 7.38924 13.4822 7.14738 12.9948 7.04913C12.5075 6.95088 12.002 7.0007 11.5429 7.19224C11.0838 7.38377 10.6919 7.70835 10.4171 8.12458C10.1424 8.54082 9.99715 9.02985 10 9.52933V87.4853C10 88.1522 10.2637 88.7918 10.733 89.2634C11.2024 89.735 11.8389 90 12.5026 90H90.4829C90.9799 90.0029 91.4666 89.857 91.8808 89.5808C92.2951 89.3047 92.6181 88.9109 92.8087 88.4496C92.9993 87.9883 93.0489 87.4804 92.9511 86.9907C92.8533 86.5009 92.6126 86.0515 92.2597 85.6998Z" fill="#01B0F1"/>
<path d="M65 80H75C76.3261 80 77.5979 79.4758 78.5355 78.5427C79.4732 77.6096 80 76.3441 80 75.0245V27.0113L74.25 16.4882C73.8053 15.7215 73.1631 15.0868 72.3896 14.6495C71.6162 14.2122 70.7395 13.9882 69.85 14.0005C68.9404 14.0077 68.0499 14.2617 67.2746 14.7351C66.4993 15.2085 65.8684 15.8835 65.45 16.6872L60 27.0611V75.0245C60 76.3441 60.5268 77.6096 61.4645 78.5427C62.4021 79.4758 63.6739 80 65 80ZM65 28.2552L69.85 18.8764L75 28.2801V65.0736H65V28.2552ZM65 69.1286H75V75.1987H65V69.1286Z" fill="#01B0F1"/>
</svg>
