<svg width="100" height="100" viewBox="0 0 100 100" fill="none" xmlns="http://www.w3.org/2000/svg">
<mask id="path-1-outside-1_167_727" maskUnits="userSpaceOnUse" x="12" y="15" width="75" height="69" fill="black">
<rect fill="white" x="12" y="15" width="75" height="69"/>
<path fill-rule="evenodd" clip-rule="evenodd" d="M66.2884 19.8971C66.2898 20.3283 66.4191 20.7495 66.6598 21.1074C66.9005 21.4652 67.2418 21.7438 67.6408 21.9078C68.0397 22.0718 68.4784 22.114 68.9013 22.029C69.3242 21.944 69.7124 21.7356 70.0169 21.4301C70.3214 21.1247 70.5286 20.7359 70.6122 20.3128C70.6958 19.8897 70.6522 19.4513 70.4868 19.053C70.3214 18.6548 70.0416 18.3144 69.6829 18.0749C69.3241 17.8355 68.9024 17.7077 68.471 17.7077C68.1839 17.708 67.8996 17.7649 67.6344 17.8751C67.3693 17.9854 67.1285 18.1468 66.9258 18.3501C66.7231 18.5534 66.5624 18.7947 66.4531 19.0602C66.3437 19.3256 66.2877 19.61 66.2884 19.8971ZM28.4374 51.0817C28.7071 53.7149 29.6483 56.235 31.1708 58.4006C32.874 57.5759 34.6741 56.9684 36.5288 56.5924C36.1151 54.5357 35.8877 52.4461 35.8491 50.3486H28.3823C28.3952 50.5919 28.4139 50.8351 28.4374 51.0784V51.0817ZM28.4374 47.9063C28.4136 48.1485 28.3952 48.3917 28.3823 48.6361H35.8491C35.8877 46.5386 36.1151 44.4489 36.5288 42.3923C34.6742 42.0159 32.8741 41.4084 31.1708 40.5841C29.6481 42.7497 28.707 45.2697 28.4374 47.903V47.9063ZM55.552 39.2137C53.5333 36.9247 50.8859 35.2796 47.9392 34.4831C49.3436 36.3414 50.3472 38.4707 50.8867 40.7365C52.4953 40.4116 54.0609 39.9014 55.552 39.2161V39.2137ZM59.4258 48.6385H51.9638C51.9252 46.5411 51.6978 44.4514 51.2841 42.3948C53.1372 42.0184 54.9356 41.4109 56.6373 40.5865C58.3049 42.9551 59.2716 45.7453 59.4266 48.6377L59.4258 48.6385ZM56.6364 58.4014C58.304 56.0322 59.2706 53.2415 59.4258 50.3486H51.9638C51.9252 52.4461 51.6977 54.5357 51.2841 56.5924C53.1374 56.9682 54.9351 57.576 56.6364 58.4014ZM55.552 59.7742C53.5332 62.063 50.8858 63.7079 47.9392 64.5041C49.3436 62.646 50.3472 60.517 50.8867 58.2514C52.4953 58.5763 54.0609 59.0865 55.552 59.7718V59.7742ZM36.9222 58.2514C37.4616 60.5162 38.4652 62.6445 39.8697 64.5016C36.9225 63.7051 34.2744 62.0603 32.2544 59.7718C33.7464 59.0866 35.3128 58.5764 36.9222 58.2514ZM38.6157 57.9425C38.8745 58.8949 39.2017 59.8274 39.5947 60.7327C40.7951 63.4653 42.3662 65.0303 43.904 65.0303C45.4418 65.0303 47.0121 63.4621 48.2141 60.7327C48.6069 59.8273 48.9338 58.8948 49.1923 57.9425C45.6859 57.4235 42.1221 57.4235 38.6157 57.9425ZM37.5613 50.3462C37.5985 52.3386 37.8157 54.3236 38.2102 56.2769C41.9824 55.6985 45.8208 55.6985 49.593 56.2769C49.9863 54.3234 50.2034 52.3385 50.2418 50.3462H37.5613ZM38.2102 42.7061C37.8158 44.6592 37.5986 46.6439 37.5613 48.6361H50.2475C50.2091 46.644 49.9919 44.6594 49.5987 42.7061C47.7157 42.9982 45.8128 43.1432 43.9073 43.14C42.0017 43.1432 40.0989 42.9981 38.2159 42.7061H38.2102ZM39.8672 34.4806C38.4631 36.3397 37.4602 38.4699 36.9222 40.7365C35.3128 40.4115 33.7464 39.9013 32.2544 39.2161C34.2746 36.9276 36.9226 35.2827 39.8697 34.4855L39.8672 34.4806ZM38.6133 41.0398C38.8722 40.0877 39.1994 39.1555 39.5923 38.2504C40.7927 35.5169 42.3638 33.9528 43.9016 33.9528C45.4394 33.9528 47.0097 35.5202 48.2117 38.2504C48.6043 39.1555 48.9312 40.0877 49.1899 41.0398C47.4394 41.3021 45.6716 41.4322 43.9016 41.429C42.1315 41.4322 40.3638 41.3021 38.6133 41.0398ZM74.2914 30.4984C74.2912 30.9301 74.4191 31.3521 74.6589 31.7111C74.8987 32.0701 75.2396 32.3499 75.6386 32.5151C76.0375 32.6804 76.4764 32.7236 76.8999 32.6394C77.3234 32.5551 77.7124 32.3472 78.0176 32.0419C78.3229 31.7366 78.5307 31.3476 78.6148 30.9242C78.6989 30.5008 78.6555 30.062 78.4901 29.6633C78.3247 29.2645 78.0447 28.9238 77.6855 28.6842C77.3263 28.4446 76.9042 28.3169 76.4724 28.3172C75.8941 28.318 75.3397 28.5481 74.9308 28.957C74.522 29.3659 74.292 29.9203 74.2914 30.4984ZM79.9227 49.494C79.9226 49.9256 80.0505 50.3476 80.2902 50.7066C80.53 51.0655 80.8709 51.3453 81.2697 51.5106C81.6686 51.6758 82.1075 51.7191 82.531 51.6349C82.9545 51.5508 83.3434 51.3429 83.6487 51.0377C83.954 50.7325 84.1619 50.3436 84.2461 49.9203C84.3303 49.4969 84.287 49.0581 84.1217 48.6594C83.9564 48.2606 83.6765 47.9198 83.3175 47.6801C82.9584 47.4404 82.5363 47.3126 82.1046 47.3127C81.5262 47.3136 80.9717 47.5437 80.5627 47.9525C80.1537 48.3614 79.9236 48.9157 79.9227 49.494ZM76.4748 66.3091C76.0434 66.3094 75.6217 66.4376 75.2631 66.6775C74.9045 66.9173 74.6251 67.2581 74.4602 67.6567C74.2953 68.0553 74.2524 68.4938 74.3367 68.9168C74.4211 69.3399 74.629 69.7284 74.9342 70.0333C75.2394 70.3382 75.6282 70.5457 76.0514 70.6298C76.4746 70.7138 76.9132 70.6705 77.3118 70.5054C77.7103 70.3402 78.051 70.0606 78.2907 69.702C78.5303 69.3433 78.6583 68.9217 78.6583 68.4903C78.6578 67.9117 78.4276 67.3569 78.0182 66.9478C77.6087 66.5388 77.0536 66.3091 76.4748 66.3091ZM68.471 76.9137C68.0396 76.914 67.6179 77.0422 67.2593 77.2821C66.9007 77.5219 66.6213 77.8627 66.4564 78.2613C66.2915 78.6599 66.2486 79.0984 66.3329 79.5215C66.4173 79.9445 66.6252 80.333 66.9304 80.6379C67.2356 80.9428 67.6244 81.1503 68.0476 81.2344C68.4708 81.3184 68.9094 81.2751 69.308 81.11C69.7065 80.9448 70.0472 80.6653 70.2869 80.3066C70.5265 79.9479 70.6545 79.5263 70.6545 79.0949C70.6536 78.5164 70.4232 77.9618 70.0139 77.5529C69.6046 77.144 69.0497 76.9141 68.471 76.9137ZM59.3495 34.7101L66.1189 22.9905C65.3837 22.4317 64.8712 21.6298 64.6728 20.7281C64.4745 19.8264 64.6032 18.8835 65.0361 18.0679C65.469 17.2523 66.1777 16.6171 67.0358 16.2758C67.8939 15.9344 68.8454 15.9092 69.7205 16.2045C70.5955 16.4998 71.337 17.0965 71.8125 17.8879C72.2881 18.6794 72.4668 19.6141 72.3166 20.5251C72.1664 21.4361 71.6972 22.264 70.9928 22.8611C70.2883 23.4581 69.3945 23.7854 68.471 23.7844C68.2059 23.7847 67.9414 23.7575 67.6818 23.7033L60.584 35.9937C60.5091 36.1236 60.4013 36.2315 60.2714 36.3065C60.1416 36.3815 59.9943 36.421 59.8443 36.4211H55.1878C56.3484 37.4233 57.3714 38.5744 58.2302 39.8446H67.4377L73.5654 33.0819C72.9357 32.3679 72.5911 31.4469 72.5975 30.495C72.6039 29.5431 72.9609 28.6269 73.6002 27.9214C74.2395 27.216 75.1164 26.7707 76.0633 26.6706C77.0102 26.5706 77.9608 26.8228 78.7336 27.379C79.5063 27.9353 80.0469 28.7567 80.2522 29.6862C80.4575 30.6158 80.3131 31.5884 79.8466 32.4182C79.38 33.2481 78.6241 33.877 77.7231 34.1849C76.822 34.4928 75.8392 34.4581 74.9621 34.0874L68.4515 41.2741C68.3712 41.3627 68.2732 41.4335 68.1638 41.482C68.0544 41.5305 67.9361 41.5555 67.8165 41.5555H59.2498C59.6978 42.4168 60.0717 43.3148 60.3674 44.2395H67.814C67.9286 44.236 68.0426 44.2555 68.1495 44.2969C68.2563 44.3382 68.3538 44.4007 68.4361 44.4804C68.5183 44.5602 68.5837 44.6556 68.6284 44.7611C68.6731 44.8666 68.6961 44.98 68.6961 45.0946C68.6961 45.2091 68.6731 45.3225 68.6284 45.428C68.5837 45.5335 68.5183 45.629 68.4361 45.7087C68.3538 45.7885 68.2563 45.8509 68.1495 45.8923C68.0426 45.9337 67.9286 45.9532 67.814 45.9496H60.8225C61.0073 46.8356 61.1225 47.7346 61.1672 48.6385H78.3087C78.5191 47.7041 79.0668 46.8801 79.847 46.3242C80.6271 45.7682 81.5849 45.5193 82.5371 45.6252C83.4892 45.7311 84.3689 46.1842 85.0078 46.8979C85.6467 47.6116 86 48.5358 86 49.4936C86 50.4513 85.6467 51.3755 85.0078 52.0892C84.3689 52.8029 83.4892 53.2561 82.5371 53.3619C81.5849 53.4678 80.6271 53.2189 79.847 52.663C79.0668 52.107 78.5191 51.283 78.3087 50.3486H61.1672C61.1226 51.2525 61.0073 52.1516 60.8225 53.0375H67.8165C67.931 53.034 68.0451 53.0535 68.1519 53.0948C68.2588 53.1362 68.3562 53.1986 68.4385 53.2784C68.5207 53.3581 68.5862 53.4536 68.6308 53.5591C68.6755 53.6646 68.6985 53.778 68.6985 53.8925C68.6985 54.0071 68.6755 54.1205 68.6308 54.226C68.5862 54.3315 68.5207 54.427 68.4385 54.5067C68.3562 54.5864 68.2588 54.6489 68.1519 54.6903C68.0451 54.7316 67.931 54.7511 67.8165 54.7476H60.3674C60.0723 55.6755 59.6984 56.5764 59.2498 57.4405H67.8165C67.936 57.4405 68.0543 57.4655 68.1636 57.5138C68.273 57.5621 68.371 57.6327 68.4515 57.7211L74.9621 64.9087C75.8465 64.5332 76.8383 64.4968 77.7478 64.8066C78.6574 65.1163 79.4207 65.7503 79.892 66.5874C80.3633 67.4245 80.5093 68.4059 80.3023 69.3439C80.0952 70.2819 79.5495 71.1106 78.7696 71.6717C77.9897 72.2327 77.0302 72.4866 76.0748 72.3848C75.1194 72.283 74.2351 71.8327 73.5909 71.1199C72.9468 70.4072 72.588 69.4821 72.5833 68.5215C72.5786 67.5609 72.9283 66.6324 73.5654 65.9134L67.4377 59.1434H58.2302C57.3711 60.4124 56.3481 61.5624 55.1878 62.5636H59.8443C59.9943 62.5637 60.1416 62.6032 60.2714 62.6782C60.4013 62.7532 60.5091 62.8611 60.584 62.991L67.6818 75.2806C68.6215 75.0839 69.6008 75.2404 70.4323 75.7202C71.2638 76.2001 71.8891 76.9695 72.1888 77.8814C72.4884 78.7933 72.4412 79.7836 72.0563 80.6629C71.6714 81.5422 70.9758 82.2488 70.1025 82.6475C69.2292 83.0462 68.2395 83.109 67.3227 82.824C66.406 82.539 65.6265 81.9261 65.1334 81.1025C64.6403 80.2789 64.4682 79.3026 64.65 78.3601C64.8318 77.4177 65.3548 76.5753 66.1189 75.9941L59.3495 64.277H52.8316C50.3404 65.7802 47.5095 66.6294 44.602 66.7459C41.6945 66.8623 38.8048 66.2422 36.2012 64.9431C33.5977 63.6439 31.3648 61.708 29.7101 59.3151C28.0554 56.9222 27.0326 54.15 26.7366 51.256C26.4086 48.0646 26.9768 44.845 28.3774 41.9585C29.778 39.072 31.9555 36.6329 34.6657 34.9149C37.3758 33.1969 40.5113 32.2681 43.7201 32.2326C46.929 32.1972 50.0842 33.0565 52.8316 34.7142L59.3495 34.7101ZM13 54.3876V44.5987C13.0002 44.3974 13.0714 44.2026 13.2011 44.0485C13.3307 43.8944 13.5105 43.7909 13.7089 43.7562L20.0305 42.6526C20.5485 40.8406 21.2727 39.0939 22.1888 37.4468L18.4992 32.1948C18.3833 32.03 18.3295 31.8295 18.3473 31.6288C18.3651 31.4282 18.4534 31.2403 18.5965 31.0985L25.5216 24.1769C25.6638 24.0343 25.8518 23.9466 26.0524 23.9291C26.253 23.9116 26.4534 23.9654 26.6181 24.0812L31.8715 27.7715C33.5191 26.8555 35.2662 26.1312 37.0787 25.6129L38.1834 19.2921C38.218 19.0938 38.3215 18.9141 38.4757 18.7846C38.6298 18.6551 38.8248 18.5841 39.0261 18.5843H48.8135C49.0147 18.5845 49.2094 18.6556 49.3633 18.785C49.5173 18.9145 49.6207 19.094 49.6554 19.2921L50.7609 25.617C52.751 26.1869 54.6617 27.0042 56.4483 28.0496C56.6287 28.1714 56.7559 28.3575 56.8039 28.5698C56.8519 28.7821 56.8172 29.0047 56.7067 29.1923C56.5963 29.3799 56.4185 29.5184 56.2096 29.5795C56.0006 29.6406 55.7762 29.6198 55.582 29.5213C53.7711 28.4609 51.8235 27.6536 49.7933 27.1219C49.6347 27.0802 49.4914 26.9938 49.3804 26.8731C49.2694 26.7524 49.1954 26.6023 49.1672 26.4408L48.0941 20.2944H39.7399L38.6652 26.4408C38.6372 26.6024 38.5633 26.7526 38.4523 26.8734C38.3412 26.9942 38.1978 27.0805 38.039 27.1219C36.0093 27.6541 34.062 28.4614 32.2511 29.5213C32.1095 29.604 31.9471 29.6443 31.7832 29.6376C31.6194 29.6308 31.4609 29.5772 31.3265 29.4832L26.2207 25.8975L20.3136 31.8031L23.9026 36.9116C23.9969 37.0457 24.0506 37.2041 24.0574 37.3678C24.0641 37.5316 24.0236 37.6938 23.9407 37.8352C22.88 39.6458 22.072 41.5929 21.5391 43.6224C21.4978 43.781 21.4118 43.9243 21.2913 44.0353C21.1708 44.1463 21.0208 44.2203 20.8594 44.2484L14.7114 45.318V53.67L20.8586 54.7444C21.02 54.7724 21.1699 54.8462 21.2904 54.9571C21.4109 55.0679 21.497 55.2111 21.5383 55.3696C22.0711 57.3994 22.8791 59.3468 23.9399 61.1576C24.0229 61.2988 24.0634 61.4609 24.0566 61.6246C24.0498 61.7882 23.9961 61.9464 23.9018 62.0803L20.3103 67.1889L26.2207 73.0904L31.3306 69.5015C31.4648 69.4073 31.6233 69.3536 31.7872 69.3467C31.951 69.3398 32.1135 69.38 32.2552 69.4626C34.0658 70.5231 36.0132 71.3307 38.0431 71.8627C38.2017 71.904 38.345 71.99 38.4561 72.1105C38.5671 72.231 38.6411 72.3809 38.6693 72.5423L39.744 78.6895H48.0981L49.1712 72.5431C49.1997 72.3818 49.2738 72.2321 49.3848 72.1116C49.4957 71.9912 49.6389 71.9051 49.7974 71.8635C51.826 71.332 53.7723 70.5253 55.582 69.4658C55.7779 69.3512 56.0113 69.319 56.2309 69.3764C56.4504 69.4338 56.6382 69.5761 56.7528 69.7719C56.8675 69.9677 56.8996 70.201 56.8422 70.4205C56.7848 70.6401 56.6425 70.8278 56.4467 70.9424C54.6603 71.9882 52.7495 72.8055 50.7593 73.375L49.6538 79.6998C49.6191 79.8979 49.5157 80.0775 49.3617 80.207C49.2077 80.3364 49.0131 80.4075 48.8119 80.4077H39.0229C38.8215 80.4079 38.6266 80.3369 38.4724 80.2074C38.3183 80.0779 38.2148 79.8982 38.1802 79.6998L37.0755 73.375C35.2631 72.856 33.516 72.1316 31.8683 71.2157L26.6149 74.9068C26.45 75.0222 26.2497 75.0758 26.0492 75.0583C25.8487 75.0408 25.6607 74.9533 25.5183 74.8111L18.5965 67.8886C18.454 67.7465 18.3663 67.5586 18.3491 67.3581C18.3319 67.1576 18.3862 66.9575 18.5024 66.7932L22.192 61.5403C21.2756 59.8937 20.5514 58.1472 20.0337 56.3353L13.7089 55.2301C13.5104 55.1957 13.3304 55.0923 13.2007 54.9382C13.071 54.784 12.9999 54.589 13 54.3876Z"/>
</mask>
<path fill-rule="evenodd" clip-rule="evenodd" d="M66.2884 19.8971C66.2898 20.3283 66.4191 20.7495 66.6598 21.1074C66.9005 21.4652 67.2418 21.7438 67.6408 21.9078C68.0397 22.0718 68.4784 22.114 68.9013 22.029C69.3242 21.944 69.7124 21.7356 70.0169 21.4301C70.3214 21.1247 70.5286 20.7359 70.6122 20.3128C70.6958 19.8897 70.6522 19.4513 70.4868 19.053C70.3214 18.6548 70.0416 18.3144 69.6829 18.0749C69.3241 17.8355 68.9024 17.7077 68.471 17.7077C68.1839 17.708 67.8996 17.7649 67.6344 17.8751C67.3693 17.9854 67.1285 18.1468 66.9258 18.3501C66.7231 18.5534 66.5624 18.7947 66.4531 19.0602C66.3437 19.3256 66.2877 19.61 66.2884 19.8971ZM28.4374 51.0817C28.7071 53.7149 29.6483 56.235 31.1708 58.4006C32.874 57.5759 34.6741 56.9684 36.5288 56.5924C36.1151 54.5357 35.8877 52.4461 35.8491 50.3486H28.3823C28.3952 50.5919 28.4139 50.8351 28.4374 51.0784V51.0817ZM28.4374 47.9063C28.4136 48.1485 28.3952 48.3917 28.3823 48.6361H35.8491C35.8877 46.5386 36.1151 44.4489 36.5288 42.3923C34.6742 42.0159 32.8741 41.4084 31.1708 40.5841C29.6481 42.7497 28.707 45.2697 28.4374 47.903V47.9063ZM55.552 39.2137C53.5333 36.9247 50.8859 35.2796 47.9392 34.4831C49.3436 36.3414 50.3472 38.4707 50.8867 40.7365C52.4953 40.4116 54.0609 39.9014 55.552 39.2161V39.2137ZM59.4258 48.6385H51.9638C51.9252 46.5411 51.6978 44.4514 51.2841 42.3948C53.1372 42.0184 54.9356 41.4109 56.6373 40.5865C58.3049 42.9551 59.2716 45.7453 59.4266 48.6377L59.4258 48.6385ZM56.6364 58.4014C58.304 56.0322 59.2706 53.2415 59.4258 50.3486H51.9638C51.9252 52.4461 51.6977 54.5357 51.2841 56.5924C53.1374 56.9682 54.9351 57.576 56.6364 58.4014ZM55.552 59.7742C53.5332 62.063 50.8858 63.7079 47.9392 64.5041C49.3436 62.646 50.3472 60.517 50.8867 58.2514C52.4953 58.5763 54.0609 59.0865 55.552 59.7718V59.7742ZM36.9222 58.2514C37.4616 60.5162 38.4652 62.6445 39.8697 64.5016C36.9225 63.7051 34.2744 62.0603 32.2544 59.7718C33.7464 59.0866 35.3128 58.5764 36.9222 58.2514ZM38.6157 57.9425C38.8745 58.8949 39.2017 59.8274 39.5947 60.7327C40.7951 63.4653 42.3662 65.0303 43.904 65.0303C45.4418 65.0303 47.0121 63.4621 48.2141 60.7327C48.6069 59.8273 48.9338 58.8948 49.1923 57.9425C45.6859 57.4235 42.1221 57.4235 38.6157 57.9425ZM37.5613 50.3462C37.5985 52.3386 37.8157 54.3236 38.2102 56.2769C41.9824 55.6985 45.8208 55.6985 49.593 56.2769C49.9863 54.3234 50.2034 52.3385 50.2418 50.3462H37.5613ZM38.2102 42.7061C37.8158 44.6592 37.5986 46.6439 37.5613 48.6361H50.2475C50.2091 46.644 49.9919 44.6594 49.5987 42.7061C47.7157 42.9982 45.8128 43.1432 43.9073 43.14C42.0017 43.1432 40.0989 42.9981 38.2159 42.7061H38.2102ZM39.8672 34.4806C38.4631 36.3397 37.4602 38.4699 36.9222 40.7365C35.3128 40.4115 33.7464 39.9013 32.2544 39.2161C34.2746 36.9276 36.9226 35.2827 39.8697 34.4855L39.8672 34.4806ZM38.6133 41.0398C38.8722 40.0877 39.1994 39.1555 39.5923 38.2504C40.7927 35.5169 42.3638 33.9528 43.9016 33.9528C45.4394 33.9528 47.0097 35.5202 48.2117 38.2504C48.6043 39.1555 48.9312 40.0877 49.1899 41.0398C47.4394 41.3021 45.6716 41.4322 43.9016 41.429C42.1315 41.4322 40.3638 41.3021 38.6133 41.0398ZM74.2914 30.4984C74.2912 30.9301 74.4191 31.3521 74.6589 31.7111C74.8987 32.0701 75.2396 32.3499 75.6386 32.5151C76.0375 32.6804 76.4764 32.7236 76.8999 32.6394C77.3234 32.5551 77.7124 32.3472 78.0176 32.0419C78.3229 31.7366 78.5307 31.3476 78.6148 30.9242C78.6989 30.5008 78.6555 30.062 78.4901 29.6633C78.3247 29.2645 78.0447 28.9238 77.6855 28.6842C77.3263 28.4446 76.9042 28.3169 76.4724 28.3172C75.8941 28.318 75.3397 28.5481 74.9308 28.957C74.522 29.3659 74.292 29.9203 74.2914 30.4984ZM79.9227 49.494C79.9226 49.9256 80.0505 50.3476 80.2902 50.7066C80.53 51.0655 80.8709 51.3453 81.2697 51.5106C81.6686 51.6758 82.1075 51.7191 82.531 51.6349C82.9545 51.5508 83.3434 51.3429 83.6487 51.0377C83.954 50.7325 84.1619 50.3436 84.2461 49.9203C84.3303 49.4969 84.287 49.0581 84.1217 48.6594C83.9564 48.2606 83.6765 47.9198 83.3175 47.6801C82.9584 47.4404 82.5363 47.3126 82.1046 47.3127C81.5262 47.3136 80.9717 47.5437 80.5627 47.9525C80.1537 48.3614 79.9236 48.9157 79.9227 49.494ZM76.4748 66.3091C76.0434 66.3094 75.6217 66.4376 75.2631 66.6775C74.9045 66.9173 74.6251 67.2581 74.4602 67.6567C74.2953 68.0553 74.2524 68.4938 74.3367 68.9168C74.4211 69.3399 74.629 69.7284 74.9342 70.0333C75.2394 70.3382 75.6282 70.5457 76.0514 70.6298C76.4746 70.7138 76.9132 70.6705 77.3118 70.5054C77.7103 70.3402 78.051 70.0606 78.2907 69.702C78.5303 69.3433 78.6583 68.9217 78.6583 68.4903C78.6578 67.9117 78.4276 67.3569 78.0182 66.9478C77.6087 66.5388 77.0536 66.3091 76.4748 66.3091ZM68.471 76.9137C68.0396 76.914 67.6179 77.0422 67.2593 77.2821C66.9007 77.5219 66.6213 77.8627 66.4564 78.2613C66.2915 78.6599 66.2486 79.0984 66.3329 79.5215C66.4173 79.9445 66.6252 80.333 66.9304 80.6379C67.2356 80.9428 67.6244 81.1503 68.0476 81.2344C68.4708 81.3184 68.9094 81.2751 69.308 81.11C69.7065 80.9448 70.0472 80.6653 70.2869 80.3066C70.5265 79.9479 70.6545 79.5263 70.6545 79.0949C70.6536 78.5164 70.4232 77.9618 70.0139 77.5529C69.6046 77.144 69.0497 76.9141 68.471 76.9137ZM59.3495 34.7101L66.1189 22.9905C65.3837 22.4317 64.8712 21.6298 64.6728 20.7281C64.4745 19.8264 64.6032 18.8835 65.0361 18.0679C65.469 17.2523 66.1777 16.6171 67.0358 16.2758C67.8939 15.9344 68.8454 15.9092 69.7205 16.2045C70.5955 16.4998 71.337 17.0965 71.8125 17.8879C72.2881 18.6794 72.4668 19.6141 72.3166 20.5251C72.1664 21.4361 71.6972 22.264 70.9928 22.8611C70.2883 23.4581 69.3945 23.7854 68.471 23.7844C68.2059 23.7847 67.9414 23.7575 67.6818 23.7033L60.584 35.9937C60.5091 36.1236 60.4013 36.2315 60.2714 36.3065C60.1416 36.3815 59.9943 36.421 59.8443 36.4211H55.1878C56.3484 37.4233 57.3714 38.5744 58.2302 39.8446H67.4377L73.5654 33.0819C72.9357 32.3679 72.5911 31.4469 72.5975 30.495C72.6039 29.5431 72.9609 28.6269 73.6002 27.9214C74.2395 27.216 75.1164 26.7707 76.0633 26.6706C77.0102 26.5706 77.9608 26.8228 78.7336 27.379C79.5063 27.9353 80.0469 28.7567 80.2522 29.6862C80.4575 30.6158 80.3131 31.5884 79.8466 32.4182C79.38 33.2481 78.6241 33.877 77.7231 34.1849C76.822 34.4928 75.8392 34.4581 74.9621 34.0874L68.4515 41.2741C68.3712 41.3627 68.2732 41.4335 68.1638 41.482C68.0544 41.5305 67.9361 41.5555 67.8165 41.5555H59.2498C59.6978 42.4168 60.0717 43.3148 60.3674 44.2395H67.814C67.9286 44.236 68.0426 44.2555 68.1495 44.2969C68.2563 44.3382 68.3538 44.4007 68.4361 44.4804C68.5183 44.5602 68.5837 44.6556 68.6284 44.7611C68.6731 44.8666 68.6961 44.98 68.6961 45.0946C68.6961 45.2091 68.6731 45.3225 68.6284 45.428C68.5837 45.5335 68.5183 45.629 68.4361 45.7087C68.3538 45.7885 68.2563 45.8509 68.1495 45.8923C68.0426 45.9337 67.9286 45.9532 67.814 45.9496H60.8225C61.0073 46.8356 61.1225 47.7346 61.1672 48.6385H78.3087C78.5191 47.7041 79.0668 46.8801 79.847 46.3242C80.6271 45.7682 81.5849 45.5193 82.5371 45.6252C83.4892 45.7311 84.3689 46.1842 85.0078 46.8979C85.6467 47.6116 86 48.5358 86 49.4936C86 50.4513 85.6467 51.3755 85.0078 52.0892C84.3689 52.8029 83.4892 53.2561 82.5371 53.3619C81.5849 53.4678 80.6271 53.2189 79.847 52.663C79.0668 52.107 78.5191 51.283 78.3087 50.3486H61.1672C61.1226 51.2525 61.0073 52.1516 60.8225 53.0375H67.8165C67.931 53.034 68.0451 53.0535 68.1519 53.0948C68.2588 53.1362 68.3562 53.1986 68.4385 53.2784C68.5207 53.3581 68.5862 53.4536 68.6308 53.5591C68.6755 53.6646 68.6985 53.778 68.6985 53.8925C68.6985 54.0071 68.6755 54.1205 68.6308 54.226C68.5862 54.3315 68.5207 54.427 68.4385 54.5067C68.3562 54.5864 68.2588 54.6489 68.1519 54.6903C68.0451 54.7316 67.931 54.7511 67.8165 54.7476H60.3674C60.0723 55.6755 59.6984 56.5764 59.2498 57.4405H67.8165C67.936 57.4405 68.0543 57.4655 68.1636 57.5138C68.273 57.5621 68.371 57.6327 68.4515 57.7211L74.9621 64.9087C75.8465 64.5332 76.8383 64.4968 77.7478 64.8066C78.6574 65.1163 79.4207 65.7503 79.892 66.5874C80.3633 67.4245 80.5093 68.4059 80.3023 69.3439C80.0952 70.2819 79.5495 71.1106 78.7696 71.6717C77.9897 72.2327 77.0302 72.4866 76.0748 72.3848C75.1194 72.283 74.2351 71.8327 73.5909 71.1199C72.9468 70.4072 72.588 69.4821 72.5833 68.5215C72.5786 67.5609 72.9283 66.6324 73.5654 65.9134L67.4377 59.1434H58.2302C57.3711 60.4124 56.3481 61.5624 55.1878 62.5636H59.8443C59.9943 62.5637 60.1416 62.6032 60.2714 62.6782C60.4013 62.7532 60.5091 62.8611 60.584 62.991L67.6818 75.2806C68.6215 75.0839 69.6008 75.2404 70.4323 75.7202C71.2638 76.2001 71.8891 76.9695 72.1888 77.8814C72.4884 78.7933 72.4412 79.7836 72.0563 80.6629C71.6714 81.5422 70.9758 82.2488 70.1025 82.6475C69.2292 83.0462 68.2395 83.109 67.3227 82.824C66.406 82.539 65.6265 81.9261 65.1334 81.1025C64.6403 80.2789 64.4682 79.3026 64.65 78.3601C64.8318 77.4177 65.3548 76.5753 66.1189 75.9941L59.3495 64.277H52.8316C50.3404 65.7802 47.5095 66.6294 44.602 66.7459C41.6945 66.8623 38.8048 66.2422 36.2012 64.9431C33.5977 63.6439 31.3648 61.708 29.7101 59.3151C28.0554 56.9222 27.0326 54.15 26.7366 51.256C26.4086 48.0646 26.9768 44.845 28.3774 41.9585C29.778 39.072 31.9555 36.6329 34.6657 34.9149C37.3758 33.1969 40.5113 32.2681 43.7201 32.2326C46.929 32.1972 50.0842 33.0565 52.8316 34.7142L59.3495 34.7101ZM13 54.3876V44.5987C13.0002 44.3974 13.0714 44.2026 13.2011 44.0485C13.3307 43.8944 13.5105 43.7909 13.7089 43.7562L20.0305 42.6526C20.5485 40.8406 21.2727 39.0939 22.1888 37.4468L18.4992 32.1948C18.3833 32.03 18.3295 31.8295 18.3473 31.6288C18.3651 31.4282 18.4534 31.2403 18.5965 31.0985L25.5216 24.1769C25.6638 24.0343 25.8518 23.9466 26.0524 23.9291C26.253 23.9116 26.4534 23.9654 26.6181 24.0812L31.8715 27.7715C33.5191 26.8555 35.2662 26.1312 37.0787 25.6129L38.1834 19.2921C38.218 19.0938 38.3215 18.9141 38.4757 18.7846C38.6298 18.6551 38.8248 18.5841 39.0261 18.5843H48.8135C49.0147 18.5845 49.2094 18.6556 49.3633 18.785C49.5173 18.9145 49.6207 19.094 49.6554 19.2921L50.7609 25.617C52.751 26.1869 54.6617 27.0042 56.4483 28.0496C56.6287 28.1714 56.7559 28.3575 56.8039 28.5698C56.8519 28.7821 56.8172 29.0047 56.7067 29.1923C56.5963 29.3799 56.4185 29.5184 56.2096 29.5795C56.0006 29.6406 55.7762 29.6198 55.582 29.5213C53.7711 28.4609 51.8235 27.6536 49.7933 27.1219C49.6347 27.0802 49.4914 26.9938 49.3804 26.8731C49.2694 26.7524 49.1954 26.6023 49.1672 26.4408L48.0941 20.2944H39.7399L38.6652 26.4408C38.6372 26.6024 38.5633 26.7526 38.4523 26.8734C38.3412 26.9942 38.1978 27.0805 38.039 27.1219C36.0093 27.6541 34.062 28.4614 32.2511 29.5213C32.1095 29.604 31.9471 29.6443 31.7832 29.6376C31.6194 29.6308 31.4609 29.5772 31.3265 29.4832L26.2207 25.8975L20.3136 31.8031L23.9026 36.9116C23.9969 37.0457 24.0506 37.2041 24.0574 37.3678C24.0641 37.5316 24.0236 37.6938 23.9407 37.8352C22.88 39.6458 22.072 41.5929 21.5391 43.6224C21.4978 43.781 21.4118 43.9243 21.2913 44.0353C21.1708 44.1463 21.0208 44.2203 20.8594 44.2484L14.7114 45.318V53.67L20.8586 54.7444C21.02 54.7724 21.1699 54.8462 21.2904 54.9571C21.4109 55.0679 21.497 55.2111 21.5383 55.3696C22.0711 57.3994 22.8791 59.3468 23.9399 61.1576C24.0229 61.2988 24.0634 61.4609 24.0566 61.6246C24.0498 61.7882 23.9961 61.9464 23.9018 62.0803L20.3103 67.1889L26.2207 73.0904L31.3306 69.5015C31.4648 69.4073 31.6233 69.3536 31.7872 69.3467C31.951 69.3398 32.1135 69.38 32.2552 69.4626C34.0658 70.5231 36.0132 71.3307 38.0431 71.8627C38.2017 71.904 38.345 71.99 38.4561 72.1105C38.5671 72.231 38.6411 72.3809 38.6693 72.5423L39.744 78.6895H48.0981L49.1712 72.5431C49.1997 72.3818 49.2738 72.2321 49.3848 72.1116C49.4957 71.9912 49.6389 71.9051 49.7974 71.8635C51.826 71.332 53.7723 70.5253 55.582 69.4658C55.7779 69.3512 56.0113 69.319 56.2309 69.3764C56.4504 69.4338 56.6382 69.5761 56.7528 69.7719C56.8675 69.9677 56.8996 70.201 56.8422 70.4205C56.7848 70.6401 56.6425 70.8278 56.4467 70.9424C54.6603 71.9882 52.7495 72.8055 50.7593 73.375L49.6538 79.6998C49.6191 79.8979 49.5157 80.0775 49.3617 80.207C49.2077 80.3364 49.0131 80.4075 48.8119 80.4077H39.0229C38.8215 80.4079 38.6266 80.3369 38.4724 80.2074C38.3183 80.0779 38.2148 79.8982 38.1802 79.6998L37.0755 73.375C35.2631 72.856 33.516 72.1316 31.8683 71.2157L26.6149 74.9068C26.45 75.0222 26.2497 75.0758 26.0492 75.0583C25.8487 75.0408 25.6607 74.9533 25.5183 74.8111L18.5965 67.8886C18.454 67.7465 18.3663 67.5586 18.3491 67.3581C18.3319 67.1576 18.3862 66.9575 18.5024 66.7932L22.192 61.5403C21.2756 59.8937 20.5514 58.1472 20.0337 56.3353L13.7089 55.2301C13.5104 55.1957 13.3304 55.0923 13.2007 54.9382C13.071 54.784 12.9999 54.589 13 54.3876Z" fill="#01B0F1"/>
<path fill-rule="evenodd" clip-rule="evenodd" d="M66.2884 19.8971C66.2898 20.3283 66.4191 20.7495 66.6598 21.1074C66.9005 21.4652 67.2418 21.7438 67.6408 21.9078C68.0397 22.0718 68.4784 22.114 68.9013 22.029C69.3242 21.944 69.7124 21.7356 70.0169 21.4301C70.3214 21.1247 70.5286 20.7359 70.6122 20.3128C70.6958 19.8897 70.6522 19.4513 70.4868 19.053C70.3214 18.6548 70.0416 18.3144 69.6829 18.0749C69.3241 17.8355 68.9024 17.7077 68.471 17.7077C68.1839 17.708 67.8996 17.7649 67.6344 17.8751C67.3693 17.9854 67.1285 18.1468 66.9258 18.3501C66.7231 18.5534 66.5624 18.7947 66.4531 19.0602C66.3437 19.3256 66.2877 19.61 66.2884 19.8971ZM28.4374 51.0817C28.7071 53.7149 29.6483 56.235 31.1708 58.4006C32.874 57.5759 34.6741 56.9684 36.5288 56.5924C36.1151 54.5357 35.8877 52.4461 35.8491 50.3486H28.3823C28.3952 50.5919 28.4139 50.8351 28.4374 51.0784V51.0817ZM28.4374 47.9063C28.4136 48.1485 28.3952 48.3917 28.3823 48.6361H35.8491C35.8877 46.5386 36.1151 44.4489 36.5288 42.3923C34.6742 42.0159 32.8741 41.4084 31.1708 40.5841C29.6481 42.7497 28.707 45.2697 28.4374 47.903V47.9063ZM55.552 39.2137C53.5333 36.9247 50.8859 35.2796 47.9392 34.4831C49.3436 36.3414 50.3472 38.4707 50.8867 40.7365C52.4953 40.4116 54.0609 39.9014 55.552 39.2161V39.2137ZM59.4258 48.6385H51.9638C51.9252 46.5411 51.6978 44.4514 51.2841 42.3948C53.1372 42.0184 54.9356 41.4109 56.6373 40.5865C58.3049 42.9551 59.2716 45.7453 59.4266 48.6377L59.4258 48.6385ZM56.6364 58.4014C58.304 56.0322 59.2706 53.2415 59.4258 50.3486H51.9638C51.9252 52.4461 51.6977 54.5357 51.2841 56.5924C53.1374 56.9682 54.9351 57.576 56.6364 58.4014ZM55.552 59.7742C53.5332 62.063 50.8858 63.7079 47.9392 64.5041C49.3436 62.646 50.3472 60.517 50.8867 58.2514C52.4953 58.5763 54.0609 59.0865 55.552 59.7718V59.7742ZM36.9222 58.2514C37.4616 60.5162 38.4652 62.6445 39.8697 64.5016C36.9225 63.7051 34.2744 62.0603 32.2544 59.7718C33.7464 59.0866 35.3128 58.5764 36.9222 58.2514ZM38.6157 57.9425C38.8745 58.8949 39.2017 59.8274 39.5947 60.7327C40.7951 63.4653 42.3662 65.0303 43.904 65.0303C45.4418 65.0303 47.0121 63.4621 48.2141 60.7327C48.6069 59.8273 48.9338 58.8948 49.1923 57.9425C45.6859 57.4235 42.1221 57.4235 38.6157 57.9425ZM37.5613 50.3462C37.5985 52.3386 37.8157 54.3236 38.2102 56.2769C41.9824 55.6985 45.8208 55.6985 49.593 56.2769C49.9863 54.3234 50.2034 52.3385 50.2418 50.3462H37.5613ZM38.2102 42.7061C37.8158 44.6592 37.5986 46.6439 37.5613 48.6361H50.2475C50.2091 46.644 49.9919 44.6594 49.5987 42.7061C47.7157 42.9982 45.8128 43.1432 43.9073 43.14C42.0017 43.1432 40.0989 42.9981 38.2159 42.7061H38.2102ZM39.8672 34.4806C38.4631 36.3397 37.4602 38.4699 36.9222 40.7365C35.3128 40.4115 33.7464 39.9013 32.2544 39.2161C34.2746 36.9276 36.9226 35.2827 39.8697 34.4855L39.8672 34.4806ZM38.6133 41.0398C38.8722 40.0877 39.1994 39.1555 39.5923 38.2504C40.7927 35.5169 42.3638 33.9528 43.9016 33.9528C45.4394 33.9528 47.0097 35.5202 48.2117 38.2504C48.6043 39.1555 48.9312 40.0877 49.1899 41.0398C47.4394 41.3021 45.6716 41.4322 43.9016 41.429C42.1315 41.4322 40.3638 41.3021 38.6133 41.0398ZM74.2914 30.4984C74.2912 30.9301 74.4191 31.3521 74.6589 31.7111C74.8987 32.0701 75.2396 32.3499 75.6386 32.5151C76.0375 32.6804 76.4764 32.7236 76.8999 32.6394C77.3234 32.5551 77.7124 32.3472 78.0176 32.0419C78.3229 31.7366 78.5307 31.3476 78.6148 30.9242C78.6989 30.5008 78.6555 30.062 78.4901 29.6633C78.3247 29.2645 78.0447 28.9238 77.6855 28.6842C77.3263 28.4446 76.9042 28.3169 76.4724 28.3172C75.8941 28.318 75.3397 28.5481 74.9308 28.957C74.522 29.3659 74.292 29.9203 74.2914 30.4984ZM79.9227 49.494C79.9226 49.9256 80.0505 50.3476 80.2902 50.7066C80.53 51.0655 80.8709 51.3453 81.2697 51.5106C81.6686 51.6758 82.1075 51.7191 82.531 51.6349C82.9545 51.5508 83.3434 51.3429 83.6487 51.0377C83.954 50.7325 84.1619 50.3436 84.2461 49.9203C84.3303 49.4969 84.287 49.0581 84.1217 48.6594C83.9564 48.2606 83.6765 47.9198 83.3175 47.6801C82.9584 47.4404 82.5363 47.3126 82.1046 47.3127C81.5262 47.3136 80.9717 47.5437 80.5627 47.9525C80.1537 48.3614 79.9236 48.9157 79.9227 49.494ZM76.4748 66.3091C76.0434 66.3094 75.6217 66.4376 75.2631 66.6775C74.9045 66.9173 74.6251 67.2581 74.4602 67.6567C74.2953 68.0553 74.2524 68.4938 74.3367 68.9168C74.4211 69.3399 74.629 69.7284 74.9342 70.0333C75.2394 70.3382 75.6282 70.5457 76.0514 70.6298C76.4746 70.7138 76.9132 70.6705 77.3118 70.5054C77.7103 70.3402 78.051 70.0606 78.2907 69.702C78.5303 69.3433 78.6583 68.9217 78.6583 68.4903C78.6578 67.9117 78.4276 67.3569 78.0182 66.9478C77.6087 66.5388 77.0536 66.3091 76.4748 66.3091ZM68.471 76.9137C68.0396 76.914 67.6179 77.0422 67.2593 77.2821C66.9007 77.5219 66.6213 77.8627 66.4564 78.2613C66.2915 78.6599 66.2486 79.0984 66.3329 79.5215C66.4173 79.9445 66.6252 80.333 66.9304 80.6379C67.2356 80.9428 67.6244 81.1503 68.0476 81.2344C68.4708 81.3184 68.9094 81.2751 69.308 81.11C69.7065 80.9448 70.0472 80.6653 70.2869 80.3066C70.5265 79.9479 70.6545 79.5263 70.6545 79.0949C70.6536 78.5164 70.4232 77.9618 70.0139 77.5529C69.6046 77.144 69.0497 76.9141 68.471 76.9137ZM59.3495 34.7101L66.1189 22.9905C65.3837 22.4317 64.8712 21.6298 64.6728 20.7281C64.4745 19.8264 64.6032 18.8835 65.0361 18.0679C65.469 17.2523 66.1777 16.6171 67.0358 16.2758C67.8939 15.9344 68.8454 15.9092 69.7205 16.2045C70.5955 16.4998 71.337 17.0965 71.8125 17.8879C72.2881 18.6794 72.4668 19.6141 72.3166 20.5251C72.1664 21.4361 71.6972 22.264 70.9928 22.8611C70.2883 23.4581 69.3945 23.7854 68.471 23.7844C68.2059 23.7847 67.9414 23.7575 67.6818 23.7033L60.584 35.9937C60.5091 36.1236 60.4013 36.2315 60.2714 36.3065C60.1416 36.3815 59.9943 36.421 59.8443 36.4211H55.1878C56.3484 37.4233 57.3714 38.5744 58.2302 39.8446H67.4377L73.5654 33.0819C72.9357 32.3679 72.5911 31.4469 72.5975 30.495C72.6039 29.5431 72.9609 28.6269 73.6002 27.9214C74.2395 27.216 75.1164 26.7707 76.0633 26.6706C77.0102 26.5706 77.9608 26.8228 78.7336 27.379C79.5063 27.9353 80.0469 28.7567 80.2522 29.6862C80.4575 30.6158 80.3131 31.5884 79.8466 32.4182C79.38 33.2481 78.6241 33.877 77.7231 34.1849C76.822 34.4928 75.8392 34.4581 74.9621 34.0874L68.4515 41.2741C68.3712 41.3627 68.2732 41.4335 68.1638 41.482C68.0544 41.5305 67.9361 41.5555 67.8165 41.5555H59.2498C59.6978 42.4168 60.0717 43.3148 60.3674 44.2395H67.814C67.9286 44.236 68.0426 44.2555 68.1495 44.2969C68.2563 44.3382 68.3538 44.4007 68.4361 44.4804C68.5183 44.5602 68.5837 44.6556 68.6284 44.7611C68.6731 44.8666 68.6961 44.98 68.6961 45.0946C68.6961 45.2091 68.6731 45.3225 68.6284 45.428C68.5837 45.5335 68.5183 45.629 68.4361 45.7087C68.3538 45.7885 68.2563 45.8509 68.1495 45.8923C68.0426 45.9337 67.9286 45.9532 67.814 45.9496H60.8225C61.0073 46.8356 61.1225 47.7346 61.1672 48.6385H78.3087C78.5191 47.7041 79.0668 46.8801 79.847 46.3242C80.6271 45.7682 81.5849 45.5193 82.5371 45.6252C83.4892 45.7311 84.3689 46.1842 85.0078 46.8979C85.6467 47.6116 86 48.5358 86 49.4936C86 50.4513 85.6467 51.3755 85.0078 52.0892C84.3689 52.8029 83.4892 53.2561 82.5371 53.3619C81.5849 53.4678 80.6271 53.2189 79.847 52.663C79.0668 52.107 78.5191 51.283 78.3087 50.3486H61.1672C61.1226 51.2525 61.0073 52.1516 60.8225 53.0375H67.8165C67.931 53.034 68.0451 53.0535 68.1519 53.0948C68.2588 53.1362 68.3562 53.1986 68.4385 53.2784C68.5207 53.3581 68.5862 53.4536 68.6308 53.5591C68.6755 53.6646 68.6985 53.778 68.6985 53.8925C68.6985 54.0071 68.6755 54.1205 68.6308 54.226C68.5862 54.3315 68.5207 54.427 68.4385 54.5067C68.3562 54.5864 68.2588 54.6489 68.1519 54.6903C68.0451 54.7316 67.931 54.7511 67.8165 54.7476H60.3674C60.0723 55.6755 59.6984 56.5764 59.2498 57.4405H67.8165C67.936 57.4405 68.0543 57.4655 68.1636 57.5138C68.273 57.5621 68.371 57.6327 68.4515 57.7211L74.9621 64.9087C75.8465 64.5332 76.8383 64.4968 77.7478 64.8066C78.6574 65.1163 79.4207 65.7503 79.892 66.5874C80.3633 67.4245 80.5093 68.4059 80.3023 69.3439C80.0952 70.2819 79.5495 71.1106 78.7696 71.6717C77.9897 72.2327 77.0302 72.4866 76.0748 72.3848C75.1194 72.283 74.2351 71.8327 73.5909 71.1199C72.9468 70.4072 72.588 69.4821 72.5833 68.5215C72.5786 67.5609 72.9283 66.6324 73.5654 65.9134L67.4377 59.1434H58.2302C57.3711 60.4124 56.3481 61.5624 55.1878 62.5636H59.8443C59.9943 62.5637 60.1416 62.6032 60.2714 62.6782C60.4013 62.7532 60.5091 62.8611 60.584 62.991L67.6818 75.2806C68.6215 75.0839 69.6008 75.2404 70.4323 75.7202C71.2638 76.2001 71.8891 76.9695 72.1888 77.8814C72.4884 78.7933 72.4412 79.7836 72.0563 80.6629C71.6714 81.5422 70.9758 82.2488 70.1025 82.6475C69.2292 83.0462 68.2395 83.109 67.3227 82.824C66.406 82.539 65.6265 81.9261 65.1334 81.1025C64.6403 80.2789 64.4682 79.3026 64.65 78.3601C64.8318 77.4177 65.3548 76.5753 66.1189 75.9941L59.3495 64.277H52.8316C50.3404 65.7802 47.5095 66.6294 44.602 66.7459C41.6945 66.8623 38.8048 66.2422 36.2012 64.9431C33.5977 63.6439 31.3648 61.708 29.7101 59.3151C28.0554 56.9222 27.0326 54.15 26.7366 51.256C26.4086 48.0646 26.9768 44.845 28.3774 41.9585C29.778 39.072 31.9555 36.6329 34.6657 34.9149C37.3758 33.1969 40.5113 32.2681 43.7201 32.2326C46.929 32.1972 50.0842 33.0565 52.8316 34.7142L59.3495 34.7101ZM13 54.3876V44.5987C13.0002 44.3974 13.0714 44.2026 13.2011 44.0485C13.3307 43.8944 13.5105 43.7909 13.7089 43.7562L20.0305 42.6526C20.5485 40.8406 21.2727 39.0939 22.1888 37.4468L18.4992 32.1948C18.3833 32.03 18.3295 31.8295 18.3473 31.6288C18.3651 31.4282 18.4534 31.2403 18.5965 31.0985L25.5216 24.1769C25.6638 24.0343 25.8518 23.9466 26.0524 23.9291C26.253 23.9116 26.4534 23.9654 26.6181 24.0812L31.8715 27.7715C33.5191 26.8555 35.2662 26.1312 37.0787 25.6129L38.1834 19.2921C38.218 19.0938 38.3215 18.9141 38.4757 18.7846C38.6298 18.6551 38.8248 18.5841 39.0261 18.5843H48.8135C49.0147 18.5845 49.2094 18.6556 49.3633 18.785C49.5173 18.9145 49.6207 19.094 49.6554 19.2921L50.7609 25.617C52.751 26.1869 54.6617 27.0042 56.4483 28.0496C56.6287 28.1714 56.7559 28.3575 56.8039 28.5698C56.8519 28.7821 56.8172 29.0047 56.7067 29.1923C56.5963 29.3799 56.4185 29.5184 56.2096 29.5795C56.0006 29.6406 55.7762 29.6198 55.582 29.5213C53.7711 28.4609 51.8235 27.6536 49.7933 27.1219C49.6347 27.0802 49.4914 26.9938 49.3804 26.8731C49.2694 26.7524 49.1954 26.6023 49.1672 26.4408L48.0941 20.2944H39.7399L38.6652 26.4408C38.6372 26.6024 38.5633 26.7526 38.4523 26.8734C38.3412 26.9942 38.1978 27.0805 38.039 27.1219C36.0093 27.6541 34.062 28.4614 32.2511 29.5213C32.1095 29.604 31.9471 29.6443 31.7832 29.6376C31.6194 29.6308 31.4609 29.5772 31.3265 29.4832L26.2207 25.8975L20.3136 31.8031L23.9026 36.9116C23.9969 37.0457 24.0506 37.2041 24.0574 37.3678C24.0641 37.5316 24.0236 37.6938 23.9407 37.8352C22.88 39.6458 22.072 41.5929 21.5391 43.6224C21.4978 43.781 21.4118 43.9243 21.2913 44.0353C21.1708 44.1463 21.0208 44.2203 20.8594 44.2484L14.7114 45.318V53.67L20.8586 54.7444C21.02 54.7724 21.1699 54.8462 21.2904 54.9571C21.4109 55.0679 21.497 55.2111 21.5383 55.3696C22.0711 57.3994 22.8791 59.3468 23.9399 61.1576C24.0229 61.2988 24.0634 61.4609 24.0566 61.6246C24.0498 61.7882 23.9961 61.9464 23.9018 62.0803L20.3103 67.1889L26.2207 73.0904L31.3306 69.5015C31.4648 69.4073 31.6233 69.3536 31.7872 69.3467C31.951 69.3398 32.1135 69.38 32.2552 69.4626C34.0658 70.5231 36.0132 71.3307 38.0431 71.8627C38.2017 71.904 38.345 71.99 38.4561 72.1105C38.5671 72.231 38.6411 72.3809 38.6693 72.5423L39.744 78.6895H48.0981L49.1712 72.5431C49.1997 72.3818 49.2738 72.2321 49.3848 72.1116C49.4957 71.9912 49.6389 71.9051 49.7974 71.8635C51.826 71.332 53.7723 70.5253 55.582 69.4658C55.7779 69.3512 56.0113 69.319 56.2309 69.3764C56.4504 69.4338 56.6382 69.5761 56.7528 69.7719C56.8675 69.9677 56.8996 70.201 56.8422 70.4205C56.7848 70.6401 56.6425 70.8278 56.4467 70.9424C54.6603 71.9882 52.7495 72.8055 50.7593 73.375L49.6538 79.6998C49.6191 79.8979 49.5157 80.0775 49.3617 80.207C49.2077 80.3364 49.0131 80.4075 48.8119 80.4077H39.0229C38.8215 80.4079 38.6266 80.3369 38.4724 80.2074C38.3183 80.0779 38.2148 79.8982 38.1802 79.6998L37.0755 73.375C35.2631 72.856 33.516 72.1316 31.8683 71.2157L26.6149 74.9068C26.45 75.0222 26.2497 75.0758 26.0492 75.0583C25.8487 75.0408 25.6607 74.9533 25.5183 74.8111L18.5965 67.8886C18.454 67.7465 18.3663 67.5586 18.3491 67.3581C18.3319 67.1576 18.3862 66.9575 18.5024 66.7932L22.192 61.5403C21.2756 59.8937 20.5514 58.1472 20.0337 56.3353L13.7089 55.2301C13.5104 55.1957 13.3304 55.0923 13.2007 54.9382C13.071 54.784 12.9999 54.589 13 54.3876Z" stroke="#01B0F1" stroke-width="1.4" mask="url(#path-1-outside-1_167_727)"/>
</svg>
