<svg width="100" height="100" viewBox="0 0 100 100" fill="none" xmlns="http://www.w3.org/2000/svg">
<path fill-rule="evenodd" clip-rule="evenodd" d="M62.6805 14.0631L66.5997 16.3243L76.5753 10.569L72.6553 8.30783L62.6805 14.0631ZM73.7292 35.6492V53.2854L75.7007 51.4246C74.2549 41.4969 83.0119 33.0784 92.8927 34.9248C93.1093 34.9654 93.3082 35.0717 93.4621 35.2294C93.616 35.3871 93.7175 35.5883 93.7527 35.8058C94.1797 38.0976 94.0524 40.4582 93.3815 42.6909C92.7107 44.9236 91.5156 46.9638 89.8959 48.6416C88.2762 50.3193 86.2787 51.586 84.0699 52.3361C81.8611 53.0862 79.5049 53.298 77.1976 52.9538L73.7285 56.2285V71.8678C73.7368 74.7713 73.1717 77.6478 72.0655 80.3327C70.9593 83.0175 69.3338 85.4578 67.2822 87.5138C65.2306 89.5698 62.7932 91.201 60.1096 92.3141C57.426 93.4271 54.549 94 51.6434 94C48.7379 94 45.8609 93.4271 43.1773 92.3141C40.4937 91.201 38.0562 89.5698 36.0046 87.5138C33.953 85.4578 32.3275 83.0175 31.2214 80.3327C30.1152 77.6478 29.55 74.7713 29.5583 71.8678L29.5624 62.8211H28.4807C28.196 62.8211 27.9231 62.7081 27.7218 62.507C27.5205 62.3059 27.4075 62.0331 27.4075 61.7487C27.4075 61.4643 27.5205 61.1915 27.7218 60.9904C27.9231 60.7893 28.196 60.6763 28.4807 60.6763H32.7823C33.067 60.6763 33.3399 60.7893 33.5412 60.9904C33.7425 61.1915 33.8555 61.4643 33.8555 61.7487C33.8555 62.0331 33.7425 62.3059 33.5412 62.507C33.3399 62.7081 33.067 62.8211 32.7823 62.8211H31.7013L31.7054 71.8678C31.6975 74.4894 32.2075 77.0867 33.206 79.5109C34.2045 81.9352 35.6719 84.1387 37.5242 85.9952C39.3764 87.8516 41.5771 89.3246 44.0001 90.3297C46.4231 91.3347 49.0207 91.852 51.6441 91.852C54.2676 91.852 56.8652 91.3347 59.2882 90.3297C61.7112 89.3246 63.9119 87.8516 65.7641 85.9952C67.6164 84.1387 69.0838 81.9352 70.0823 79.5109C71.0808 77.0867 71.5907 74.4894 71.5829 71.8678V56.2285L68.1131 52.9538C65.8058 53.298 63.4495 53.0862 61.2407 52.3361C59.0318 51.586 57.0344 50.3192 55.4146 48.6415C53.7949 46.9637 52.5999 44.9234 51.929 42.6907C51.2582 40.4579 51.131 38.0973 51.558 35.8054C51.5932 35.588 51.6947 35.3867 51.8486 35.229C52.0025 35.0714 52.2014 34.965 52.418 34.9244C62.2986 33.0775 71.0556 41.4962 69.6107 51.4242L71.5822 53.285V35.6492L60.0925 29.0202C59.9054 28.9348 59.7468 28.7975 59.6355 28.6245C59.5243 28.4515 59.4652 28.2503 59.4652 28.0447V14.0631H59.4677C59.4677 13.8755 59.517 13.6913 59.6108 13.5288C59.7045 13.3663 59.8394 13.2312 60.0018 13.1373L72.1078 6.15282C72.2716 6.05547 72.4585 6.00357 72.649 6.00247C72.8396 6.00137 73.027 6.05112 73.1919 6.14656L85.2404 13.0978C85.4218 13.1856 85.5748 13.3227 85.6818 13.4934C85.7889 13.6641 85.8457 13.8615 85.8457 14.0629V28.0445H85.841C85.841 28.2324 85.7914 28.4169 85.6972 28.5794C85.603 28.742 85.4675 28.8768 85.3044 28.9702L73.7282 35.649L73.7292 35.6492ZM63.5349 48.6318C63.3352 48.4358 63.2203 48.1694 63.2147 47.8898C63.2092 47.6101 63.3135 47.3394 63.5053 47.1356C63.6971 46.9318 63.9611 46.8112 64.2408 46.7996C64.5204 46.788 64.7936 46.8863 65.0016 47.0734L67.6212 49.5462C67.655 47.7535 67.3023 45.9745 66.5872 44.3301C65.872 42.6856 64.8111 41.2142 63.4765 40.0157C62.1418 38.8173 60.5648 37.9198 58.8523 37.3843C57.1399 36.8489 55.3322 36.6879 53.552 36.9123C53.3291 38.6762 53.4855 40.4674 54.0107 42.166C54.5359 43.8647 55.4178 45.4319 56.5974 46.7628C57.7771 48.0937 59.2274 49.1578 60.8514 49.8839C62.4755 50.61 64.2359 50.9815 66.015 50.9734L63.5344 48.632L63.5349 48.6318ZM77.6904 49.5462L80.3093 47.0734C80.5173 46.8863 80.7904 46.788 81.0701 46.7996C81.3498 46.8112 81.6138 46.9318 81.8056 47.1356C81.9974 47.3394 82.1017 47.6101 82.0961 47.8898C82.0906 48.1694 81.9757 48.4358 81.776 48.6318L79.2953 50.9733C81.0745 50.9813 82.8349 50.6099 84.459 49.8838C86.083 49.1577 87.5333 48.0936 88.713 46.7627C89.8926 45.4318 90.7745 43.8646 91.2997 42.1659C91.8249 40.4672 91.9812 38.6761 91.7584 36.9121C89.9781 36.6877 88.1704 36.8487 86.458 37.3842C84.7456 37.9196 83.1685 38.8171 81.8339 40.0155C80.4993 41.214 79.4383 42.6854 78.7232 44.3299C78.008 45.9744 77.6553 47.7533 77.6891 49.5461L77.6904 49.5462ZM54.9031 60.5774V56.8278C54.9031 56.5433 54.7901 56.2706 54.5888 56.0694C54.3875 55.8683 54.1146 55.7553 53.8299 55.7553H49.4583C49.1737 55.7553 48.9007 55.8683 48.6995 56.0694C48.4982 56.2706 48.3852 56.5433 48.3852 56.8278V60.5774C47.5408 60.8201 46.7265 61.1571 45.9578 61.5821L43.3044 58.9308C43.1031 58.7297 42.8302 58.6168 42.5456 58.6168C42.261 58.6168 41.9881 58.7297 41.7869 58.9308L38.6965 62.0189C38.4953 62.2201 38.3823 62.4928 38.3823 62.7771C38.3823 63.0615 38.4953 63.3342 38.6965 63.5353L41.3497 66.1869C40.9244 66.9551 40.5871 67.7688 40.3442 68.6125H36.592C36.3073 68.6125 36.0344 68.7255 35.8331 68.9266C35.6318 69.1277 35.5188 69.4005 35.5188 69.6849V74.0523C35.5188 74.3367 35.6318 74.6095 35.8331 74.8106C36.0344 75.0117 36.3073 75.1247 36.592 75.1247H40.3443C40.5871 75.9685 40.9244 76.7822 41.3497 77.5504L38.6965 80.2017C38.4953 80.4028 38.3823 80.6756 38.3823 80.9599C38.3823 81.2443 38.4953 81.517 38.6965 81.7181L41.7869 84.8063C41.9881 85.0074 42.261 85.1203 42.5456 85.1203C42.8302 85.1203 43.1031 85.0074 43.3044 84.8063L45.9576 82.1549C46.7264 82.58 47.5406 82.9171 48.385 83.1598V86.9095C48.385 87.1939 48.498 87.4667 48.6993 87.6678C48.9006 87.8689 49.1735 87.9819 49.4582 87.9819H53.8285C54.1131 87.9819 54.3861 87.8689 54.5874 87.6678C54.7886 87.4667 54.9017 87.1939 54.9017 86.9095V83.1602C55.746 82.9174 56.5603 82.5803 57.3291 82.1553L59.9823 84.8067C60.1836 85.0077 60.4565 85.1207 60.7411 85.1207C61.0256 85.1207 61.2985 85.0077 61.4998 84.8067L64.5902 81.7185C64.7914 81.5174 64.9044 81.2446 64.9044 80.9603C64.9044 80.6759 64.7914 80.4032 64.5902 80.2021L61.9369 77.5507C62.3622 76.7825 62.6996 75.9688 62.9425 75.1251H66.6947C66.9793 75.1251 67.2523 75.0121 67.4536 74.811C67.6548 74.6099 67.7679 74.3371 67.7679 74.0527V69.6849C67.7679 69.4005 67.6548 69.1277 67.4536 68.9266C67.2523 68.7255 66.9793 68.6125 66.6947 68.6125H62.9427C62.6998 67.7687 62.3625 66.955 61.9373 66.1867L64.5906 63.535C64.7918 63.3339 64.9048 63.0612 64.9048 62.7768C64.9048 62.4924 64.7918 62.2197 64.5906 62.0186L61.5 58.9308C61.2987 58.7297 61.0258 58.6168 60.7412 58.6168C60.4567 58.6168 60.1838 58.7297 59.9825 58.9308L57.3292 61.5821C56.5604 61.1572 55.7462 60.8202 54.9019 60.5774H54.9031ZM55.3222 62.9882C54.7926 62.7687 54.2443 62.5972 53.684 62.476C53.427 62.4408 53.1915 62.3137 53.021 62.1184C52.8505 61.923 52.7566 61.6726 52.7566 61.4134V57.9002H50.5315V61.4134H50.5288C50.5287 61.6593 50.4439 61.8976 50.2886 62.0883C50.1333 62.279 49.9171 62.4105 49.6762 62.4606C48.5166 62.7042 47.4119 63.1594 46.4175 63.8034C46.2108 63.9518 45.958 64.0219 45.7044 64.0012C45.4507 63.9805 45.2127 63.8705 45.0327 63.6907L42.5465 61.2053L40.9736 62.7771L43.4607 65.2616C43.6346 65.4357 43.7433 65.6643 43.7686 65.909C43.7938 66.1537 43.7341 66.3997 43.5995 66.6057C43.0216 67.4877 42.4272 68.7953 42.2455 69.8292C42.2102 70.0859 42.0832 70.3213 41.8877 70.4916C41.6923 70.662 41.4417 70.7559 41.1823 70.7559H37.6651V72.9785H41.1811V72.981C41.4271 72.9811 41.6656 73.0659 41.8564 73.2211C42.0473 73.3762 42.1789 73.5923 42.229 73.833C42.4727 74.9918 42.9283 76.0958 43.5728 77.0894C43.7213 77.296 43.7914 77.5485 43.7707 77.802C43.75 78.0555 43.6399 78.2933 43.46 78.4732L40.9738 80.9576L42.5467 82.5294L45.0338 80.0441C45.208 79.8703 45.4368 79.7617 45.6817 79.7364C45.9266 79.7112 46.1727 79.7708 46.3788 79.9054C47.2614 80.4829 48.5703 81.0768 49.6045 81.2584C49.8615 81.2936 50.0971 81.4206 50.2676 81.6159C50.4381 81.8113 50.5321 82.0618 50.5321 82.321V85.8342H52.756V82.3238H52.7587C52.7588 82.0779 52.8436 81.8396 52.9989 81.6488C53.1542 81.4581 53.3705 81.3266 53.6114 81.2765C54.7709 81.0329 55.8756 80.5777 56.8699 79.9338C57.0766 79.7854 57.3294 79.7153 57.5831 79.7359C57.8368 79.7565 58.0749 79.8666 58.2549 80.0464L60.742 82.5317L62.3149 80.9599L59.8278 78.4755C59.6538 78.3014 59.5451 78.0728 59.5198 77.8281C59.4945 77.5834 59.5542 77.3374 59.6888 77.1314C60.2667 76.2495 60.8611 74.9419 61.0426 73.9081C61.0779 73.6513 61.205 73.4159 61.4005 73.2455C61.596 73.0752 61.8466 72.9813 62.106 72.9813H65.6217V70.7573H62.1061V70.7547C61.8601 70.7546 61.6216 70.6698 61.4307 70.5146C61.2399 70.3594 61.1083 70.1433 61.0582 69.9026C60.8144 68.7438 60.3588 67.6399 59.7144 66.6462C59.5659 66.4397 59.4958 66.1871 59.5165 65.9336C59.5372 65.6802 59.6473 65.4423 59.8272 65.2625L62.3143 62.778L60.7414 61.2062L58.2543 63.6916C58.0801 63.8654 57.8513 63.974 57.6064 63.9993C57.3615 64.0246 57.1154 63.965 56.9093 63.8304C56.4075 63.5014 55.876 63.2202 55.3217 62.9904L55.3222 62.9882ZM51.6446 65.4594C50.376 65.4594 49.1359 65.8353 48.0812 66.5395C47.0264 67.2438 46.2043 68.2448 45.7188 69.4159C45.2333 70.5871 45.1063 71.8758 45.3538 73.1191C45.6012 74.3623 46.2121 75.5044 47.1091 76.4008C48.0061 77.2971 49.149 77.9075 50.3932 78.1548C51.6374 78.4021 52.927 78.2752 54.099 77.7901C55.271 77.305 56.2727 76.4834 56.9774 75.4294C57.6822 74.3754 58.0583 73.1362 58.0583 71.8685C58.0582 70.1688 57.3824 68.5386 56.1796 67.3367C54.9769 66.1348 53.3456 65.4595 51.6446 65.4594ZM54.6622 68.8531C51.9816 66.1742 47.3773 68.0804 47.3773 71.8685C47.3773 75.6567 51.9814 77.5629 54.6622 74.884C55.4624 74.0842 55.9119 72.9995 55.9119 71.8685C55.9119 70.7376 55.4624 69.6529 54.6622 68.8531ZM49.8883 31.6863H54.1898C54.4744 31.6863 54.7474 31.5733 54.9487 31.3722C55.1499 31.1711 55.263 30.8983 55.263 30.6139C55.263 30.3294 55.1499 30.0567 54.9487 29.8555C54.7474 29.6544 54.4744 29.5414 54.1898 29.5414H49.8883C49.6037 29.5414 49.3307 29.6544 49.1295 29.8555C48.9282 30.0567 48.8151 30.3294 48.8151 30.6139C48.8151 30.8983 48.9282 31.1711 49.1295 31.3722C49.3307 31.5733 49.6037 31.6863 49.8883 31.6863ZM17.7737 16.2489C17.8762 16.3478 17.958 16.4661 18.0142 16.597C18.0704 16.7278 18.1001 16.8685 18.1013 17.0109C18.1025 17.1533 18.0754 17.2945 18.0214 17.4263C17.9675 17.5581 17.8878 17.6779 17.787 17.7786C17.6862 17.8793 17.5664 17.9589 17.4345 18.0128C17.3026 18.0667 17.1613 18.0939 17.0188 18.0926C16.8763 18.0914 16.7355 18.0618 16.6046 18.0056C16.4736 17.9494 16.3552 17.8677 16.2562 17.7653L13.2145 14.7257C13.112 14.6268 13.0302 14.5084 12.974 14.3776C12.9177 14.2468 12.8881 14.106 12.8869 13.9636C12.8856 13.8212 12.9128 13.68 12.9668 13.5482C13.0207 13.4164 13.1004 13.2967 13.2012 13.196C13.3019 13.0953 13.4218 13.0157 13.5536 12.9618C13.6855 12.9078 13.8268 12.8807 13.9693 12.8819C14.1118 12.8832 14.2527 12.9128 14.3836 12.969C14.5145 13.0252 14.6329 13.1069 14.7319 13.2093L17.7737 16.2489ZM11.3747 29.5414C11.6593 29.5414 11.9323 29.6544 12.1335 29.8555C12.3348 30.0567 12.4479 30.3294 12.4479 30.6139C12.4479 30.8983 12.3348 31.1711 12.1335 31.3722C11.9323 31.5733 11.6593 31.6863 11.3747 31.6863H7.07318C6.78856 31.6863 6.51559 31.5733 6.31433 31.3722C6.11307 31.1711 6 30.8983 6 30.6139C6 30.3294 6.11307 30.0567 6.31433 29.8555C6.51559 29.6544 6.78856 29.5414 7.07318 29.5414H11.3747ZM31.7047 11.3708V7.07241C31.7047 6.78799 31.5916 6.51522 31.3904 6.3141C31.1891 6.11299 30.9161 6 30.6315 6C30.3469 6 30.0739 6.11299 29.8726 6.3141C29.6714 6.51522 29.5583 6.78799 29.5583 7.07241V11.3708C29.5583 11.6552 29.6714 11.928 29.8726 12.1291C30.0739 12.3303 30.3469 12.4432 30.6315 12.4432C30.9161 12.4432 31.1891 12.3303 31.3904 12.1291C31.5916 11.928 31.7047 11.6552 31.7047 11.3708ZM45.007 17.7653L48.0476 14.7257C48.1501 14.6268 48.2319 14.5084 48.2881 14.3776C48.3444 14.2468 48.374 14.106 48.3752 13.9636C48.3765 13.8212 48.3493 13.68 48.2954 13.5482C48.2414 13.4164 48.1617 13.2967 48.0609 13.196C47.9602 13.0953 47.8404 13.0157 47.7085 12.9618C47.5766 12.9078 47.4353 12.8807 47.2928 12.8819C47.1503 12.8832 47.0094 12.9128 46.8785 12.969C46.7476 13.0252 46.6292 13.1069 46.5302 13.2093L43.4895 16.2489C43.294 16.4511 43.1858 16.722 43.1883 17.0032C43.1907 17.2844 43.3036 17.5534 43.5025 17.7522C43.7015 17.951 43.9707 18.0638 44.2521 18.0663C44.5335 18.0687 44.8045 17.9606 45.007 17.7653ZM31.7047 39.1522V48.8029H38.3164C39.6249 40.4565 44.5135 38.7086 44.5135 30.6139C44.5135 26.9348 43.0509 23.4064 40.4475 20.8049C37.8442 18.2033 34.3132 16.7418 30.6315 16.7418C26.9498 16.7418 23.4188 18.2033 20.8155 20.8049C18.2121 23.4064 16.7495 26.9348 16.7495 30.6139C16.7495 38.7093 21.6384 40.4565 22.9466 48.8029H29.5583V39.1522L25.9866 35.5832C25.8841 35.4843 25.8023 35.366 25.7461 35.2351C25.6898 35.1043 25.6602 34.9636 25.659 34.8212C25.6578 34.6788 25.6849 34.5376 25.7389 34.4058C25.7928 34.274 25.8725 34.1542 25.9733 34.0536C26.074 33.9529 26.1939 33.8732 26.3258 33.8193C26.4577 33.7654 26.599 33.7383 26.7415 33.7395C26.884 33.7407 27.0248 33.7703 27.1557 33.8265C27.2866 33.8827 27.4051 33.9644 27.5041 34.0668L30.6315 37.1919L33.7582 34.0668C33.8572 33.9644 33.9756 33.8827 34.1066 33.8265C34.2375 33.7703 34.3783 33.7407 34.5208 33.7395C34.6633 33.7383 34.8046 33.7654 34.9365 33.8193C35.0684 33.8732 35.1882 33.9529 35.289 34.0536C35.3898 34.1542 35.4694 34.274 35.5234 34.4058C35.5774 34.5376 35.6045 34.6788 35.6033 34.8212C35.602 34.9636 35.5724 35.1043 35.5162 35.2351C35.46 35.366 35.3782 35.4843 35.2757 35.5832L31.704 39.1522H31.7047ZM23.0849 50.9477V55.6992C23.0869 56.119 23.2546 56.521 23.5516 56.8179C23.8487 57.1147 24.251 57.2824 24.671 57.2844H36.592C37.0121 57.2824 37.4144 57.1148 37.7115 56.8179C38.0086 56.5211 38.1763 56.119 38.1783 55.6992V50.9477H23.0849ZM20.9385 55.6992C20.9407 56.6879 21.3348 57.6355 22.0345 58.3346C22.7342 59.0336 23.6825 59.4272 24.6719 59.4292H36.5928C37.5821 59.427 38.5303 59.0333 39.2298 58.3343C39.9294 57.6353 40.3233 56.6878 40.3256 55.6992V49.9275C40.7987 45.9742 42.1795 43.5089 43.5056 41.1423C45.1207 38.2596 46.6609 35.511 46.6609 30.6148C46.6467 26.3761 44.9518 22.3158 41.9474 19.3236C38.943 16.3314 34.8742 14.6512 30.6325 14.6512C26.3907 14.6512 22.3219 16.3314 19.3176 19.3236C16.3132 22.3158 14.6182 26.3761 14.6041 30.6148C14.6041 35.5121 16.1441 38.2605 17.7592 41.1432C19.0853 43.5098 20.4663 45.9749 20.9394 49.928V55.6992H20.9385ZM68.7361 17.557L78.7117 11.8018L82.6311 14.0629L72.6553 19.8182L68.7361 17.5574V17.557ZM73.7285 21.6697L83.6991 15.9173V27.4304L73.7285 33.1828V21.6701V21.6697ZM71.5822 33.1828L61.6116 27.4304V15.9177L71.5822 21.6701V33.1828Z" fill="white"/>
</svg>
