<svg width="116" height="384" viewBox="0 0 116 384" fill="none" xmlns="http://www.w3.org/2000/svg">
<path d="M38.0076 50.144H15.0681C14.9578 50.144 14.852 50.1002 14.7741 50.0222C14.6961 49.9443 14.6523 49.8385 14.6523 49.7283L14.6523 26.7888C14.6523 26.6785 14.6961 26.5728 14.7741 26.4948C14.852 26.4168 14.9578 26.373 15.0681 26.373H38.0076C38.1178 26.373 38.2236 26.4168 38.3015 26.4948C38.3795 26.5728 38.4233 26.6785 38.4233 26.7888V49.7116C38.4255 49.7676 38.4164 49.8235 38.3965 49.8758C38.3767 49.9282 38.3464 49.976 38.3076 50.0164C38.2687 50.0568 38.2221 50.0889 38.1706 50.1108C38.119 50.1328 38.0636 50.144 38.0076 50.144ZM15.4838 49.3125H37.5918V27.2045H15.4838L15.4838 49.3125Z" fill="#0992C5"/>
<path d="M60.2469 59.8722H49.1306C49.0203 59.8722 48.9145 59.8284 48.8366 59.7504C48.7586 59.6724 48.7148 59.5667 48.7148 59.4564V48.3317C48.7148 48.2215 48.7586 48.1157 48.8366 48.0378C48.9145 47.9598 49.0203 47.916 49.1306 47.916H60.2469C60.3572 47.916 60.4629 47.9598 60.5409 48.0378C60.6189 48.1157 60.6627 48.2215 60.6627 48.3317V59.4564C60.6627 59.5667 60.6189 59.6724 60.5409 59.7504C60.4629 59.8284 60.3572 59.8722 60.2469 59.8722ZM49.5463 59.0407H59.8312V48.7475H49.5463V59.0407Z" fill="#0992C5"/>
<path d="M38.0033 79.337H31.0524C30.9422 79.337 30.8364 79.2932 30.7585 79.2152C30.6805 79.1373 30.6367 79.0315 30.6367 78.9213V71.9704C30.6367 71.8602 30.6805 71.7544 30.7585 71.6764C30.8364 71.5985 30.9422 71.5547 31.0524 71.5547H38.0033C38.1136 71.5547 38.2193 71.5985 38.2973 71.6764C38.3752 71.7544 38.419 71.8602 38.419 71.9704V78.9213C38.419 79.0315 38.3752 79.1373 38.2973 79.2152C38.2193 79.2932 38.1136 79.337 38.0033 79.337ZM31.4682 78.5055H37.5876V72.3861H31.5014L31.4682 78.5055Z" fill="#0992C5"/>
<path d="M52.6039 82.8126H47.7399C47.6297 82.8126 47.5239 82.7688 47.446 82.6908C47.368 82.6128 47.3242 82.5071 47.3242 82.3968V77.5329C47.3242 77.4227 47.368 77.3169 47.446 77.2389C47.5239 77.161 47.6297 77.1172 47.7399 77.1172H52.6039C52.7141 77.1172 52.8199 77.161 52.8978 77.2389C52.9758 77.3169 53.0196 77.4227 53.0196 77.5329V82.3968C53.0196 82.5071 52.9758 82.6128 52.8978 82.6908C52.8199 82.7688 52.7141 82.8126 52.6039 82.8126ZM48.1557 81.9811H52.1882V77.9819H48.1307L48.1557 81.9811Z" fill="#0992C5"/>
<path d="M51.7984 268.538H46.236C46.1258 268.538 46.02 268.495 45.9421 268.417C45.8641 268.339 45.8203 268.233 45.8203 268.123V262.56C45.8203 262.45 45.8641 262.344 45.9421 262.266C46.02 262.188 46.1258 262.145 46.236 262.145H51.7984C51.9086 262.145 52.0144 262.188 52.0923 262.266C52.1703 262.344 52.2141 262.45 52.2141 262.56V268.123C52.212 268.232 52.1675 268.337 52.09 268.414C52.0125 268.492 51.908 268.536 51.7984 268.538ZM46.6518 267.707H51.3827V262.976H46.6518V267.707Z" fill="#0992C5"/>
<path d="M115.163 149.543H107.513C107.403 149.543 107.297 149.499 107.219 149.421C107.141 149.343 107.098 149.238 107.098 149.128V141.478C107.1 141.369 107.144 141.264 107.222 141.187C107.299 141.109 107.404 141.065 107.513 141.062H115.163C115.273 141.062 115.379 141.106 115.457 141.184C115.535 141.262 115.578 141.368 115.578 141.478V149.128C115.578 149.238 115.535 149.343 115.457 149.421C115.379 149.499 115.273 149.543 115.163 149.543ZM107.929 148.712H114.747V141.894H107.929V148.712Z" fill="#0992C5"/>
<path d="M51.9096 169.007H44.9587C44.8484 169.007 44.7427 168.963 44.6647 168.885C44.5868 168.807 44.543 168.701 44.543 168.591V161.64C44.543 161.53 44.5868 161.424 44.6647 161.346C44.7427 161.268 44.8484 161.225 44.9587 161.225H51.9096C52.0198 161.225 52.1256 161.268 52.2035 161.346C52.2815 161.424 52.3253 161.53 52.3253 161.64V168.608C52.321 168.715 52.2753 168.817 52.1978 168.891C52.1203 168.965 52.017 169.007 51.9096 169.007ZM45.3744 168.175H51.4606V162.056H45.3412L45.3744 168.175Z" fill="#0992C5"/>
<path d="M36.7338 200.419H21.4353C21.325 200.419 21.2192 200.375 21.1413 200.297C21.0633 200.219 21.0195 200.113 21.0195 200.003V184.713C21.0195 184.602 21.0633 184.497 21.1413 184.419C21.2192 184.341 21.325 184.297 21.4353 184.297H36.7338C36.844 184.297 36.9498 184.341 37.0277 184.419C37.1057 184.497 37.1495 184.602 37.1495 184.713V200.003C37.1495 200.113 37.1057 200.219 37.0277 200.297C36.9498 200.375 36.844 200.419 36.7338 200.419ZM21.851 199.587H36.3181V185.128H21.851V199.587Z" fill="#0992C5"/>
<path d="M74.157 251.029H67.8962C67.7859 251.029 67.6802 250.985 67.6022 250.907C67.5243 250.829 67.4805 250.724 67.4805 250.613V244.361C67.4805 244.251 67.5243 244.145 67.6022 244.067C67.6802 243.989 67.7859 243.945 67.8962 243.945H74.157C74.2672 243.945 74.373 243.989 74.4509 244.067C74.5289 244.145 74.5727 244.251 74.5727 244.361V250.613C74.5727 250.724 74.5289 250.829 74.4509 250.907C74.373 250.985 74.2672 251.029 74.157 251.029ZM68.3369 250.198H73.7662V244.777H68.3369V250.198Z" fill="#0992C5"/>
<path d="M30.3533 324.021H11.5876C11.4773 324.021 11.3716 323.978 11.2936 323.9C11.2157 323.822 11.1719 323.716 11.1719 323.606L11.1719 304.832C11.1719 304.721 11.2157 304.616 11.2936 304.538C11.3716 304.46 11.4773 304.416 11.5876 304.416H30.3533C30.4635 304.416 30.5693 304.46 30.6472 304.538C30.7252 304.616 30.769 304.721 30.769 304.832V323.606C30.769 323.716 30.7252 323.822 30.6472 323.9C30.5693 323.978 30.4635 324.021 30.3533 324.021ZM12.0033 323.19H29.9375V305.247H12.0033L12.0033 323.19Z" fill="#0992C5"/>
<path d="M63.0308 348.349H53.2946C53.1844 348.349 53.0786 348.306 53.0007 348.228C52.9227 348.15 52.8789 348.044 52.8789 347.934V338.222C52.881 338.113 52.9255 338.008 53.003 337.931C53.0805 337.853 53.185 337.809 53.2946 337.807H63.0308C63.1404 337.809 63.2449 337.853 63.3224 337.931C63.3999 338.008 63.4444 338.113 63.4466 338.222V347.959C63.4402 348.064 63.3936 348.164 63.3163 348.237C63.239 348.309 63.1369 348.35 63.0308 348.349ZM53.7103 347.518H62.6151V338.613H53.7103V347.518Z" fill="#0992C5"/>
<path d="M36.6182 291.344H22.7165C22.6062 291.344 22.5005 291.301 22.4225 291.223C22.3446 291.145 22.3008 291.039 22.3008 290.929V277.027C22.3008 276.917 22.3446 276.811 22.4225 276.733C22.5005 276.655 22.6062 276.611 22.7165 276.611H36.6182C36.7278 276.613 36.8323 276.658 36.9098 276.735C36.9874 276.813 37.0318 276.917 37.0339 277.027V290.929C37.0339 291.039 36.9901 291.145 36.9122 291.223C36.8342 291.301 36.7285 291.344 36.6182 291.344ZM23.1322 290.513H36.2025V277.443H23.1322V290.513Z" fill="#0992C5"/>
<path d="M54.6908 309.421H47.7399C47.6297 309.421 47.5239 309.377 47.446 309.299C47.368 309.221 47.3242 309.115 47.3242 309.005V302.054C47.3242 301.944 47.368 301.838 47.446 301.76C47.5239 301.682 47.6297 301.639 47.7399 301.639H54.6908C54.8011 301.639 54.9068 301.682 54.9848 301.76C55.0627 301.838 55.1065 301.944 55.1065 302.054V309.005C55.1065 309.115 55.0627 309.221 54.9848 309.299C54.9068 309.377 54.8011 309.421 54.6908 309.421ZM48.1557 308.59H54.2751V302.47H48.1307L48.1557 308.59Z" fill="#0992C5"/>
<path d="M36.6166 346.96H29.6657C29.5555 346.96 29.4497 346.916 29.3717 346.838C29.2938 346.76 29.25 346.655 29.25 346.544V339.593C29.25 339.483 29.2938 339.377 29.3717 339.3C29.4497 339.222 29.5555 339.178 29.6657 339.178H36.6166C36.7268 339.178 36.8326 339.222 36.9105 339.3C36.9885 339.377 37.0323 339.483 37.0323 339.593V346.536C37.0323 346.647 36.9888 346.754 36.9111 346.833C36.8333 346.912 36.7276 346.958 36.6166 346.96ZM30.0814 346.129H36.2008V340.009H30.0814V346.129Z" fill="#0992C5"/>
<path d="M75.5683 338.613H66.5056C66.3953 338.613 66.2896 338.569 66.2116 338.491C66.1336 338.413 66.0898 338.307 66.0898 338.197V329.168C66.0898 329.057 66.1336 328.952 66.2116 328.874C66.2896 328.796 66.3953 328.752 66.5056 328.752H75.5683C75.6785 328.752 75.7843 328.796 75.8622 328.874C75.9402 328.952 75.984 329.057 75.984 329.168V338.222C75.9776 338.328 75.931 338.427 75.8538 338.5C75.7765 338.573 75.6744 338.613 75.5683 338.613ZM66.9462 337.781H75.1526V329.583H66.9213L66.9462 337.781Z" fill="#0992C5"/>
<path d="M110.999 343.487H106.842C106.731 343.487 106.626 343.443 106.548 343.365C106.47 343.287 106.426 343.181 106.426 343.071V338.914C106.426 338.804 106.47 338.698 106.548 338.62C106.626 338.542 106.731 338.498 106.842 338.498H110.999C111.109 338.498 111.215 338.542 111.293 338.62C111.371 338.698 111.414 338.804 111.414 338.914V343.071C111.412 343.181 111.368 343.285 111.29 343.363C111.213 343.44 111.108 343.485 110.999 343.487ZM107.241 342.655H110.566V339.329H107.241V342.655Z" fill="#0992C5"/>
<path d="M86.6625 368.503H79.7282C79.618 368.503 79.5122 368.459 79.4343 368.381C79.3563 368.303 79.3125 368.198 79.3125 368.087V361.136C79.3146 361.027 79.3591 360.922 79.4366 360.845C79.5141 360.767 79.6186 360.723 79.7282 360.721H86.6791C86.7893 360.721 86.8951 360.765 86.973 360.842C87.051 360.92 87.0948 361.026 87.0948 361.136V368.087C87.0948 368.143 87.0836 368.199 87.0617 368.25C87.0397 368.302 87.0076 368.348 86.9672 368.387C86.9268 368.426 86.879 368.456 86.8266 368.476C86.7743 368.496 86.7184 368.505 86.6625 368.503ZM80.1273 367.672H86.2467V361.552H80.1273V367.672Z" fill="#0992C5"/>
<path d="M115.162 267.717H109.599C109.49 267.714 109.385 267.67 109.308 267.592C109.23 267.515 109.186 267.41 109.184 267.301V261.73C109.184 261.62 109.227 261.514 109.305 261.436C109.383 261.358 109.489 261.314 109.599 261.314H115.162C115.272 261.314 115.378 261.358 115.456 261.436C115.534 261.514 115.577 261.62 115.577 261.73V267.293C115.578 267.348 115.569 267.403 115.548 267.454C115.528 267.506 115.497 267.552 115.459 267.592C115.42 267.631 115.374 267.663 115.323 267.684C115.272 267.706 115.217 267.717 115.162 267.717ZM110.015 266.885H114.746V262.154H110.015V266.885Z" fill="#0992C5"/>
<path d="M82.494 25.8077H75.5681C75.4578 25.8077 75.3521 25.7639 75.2741 25.6859C75.1961 25.608 75.1523 25.5022 75.1523 25.392V18.4411C75.1523 18.3309 75.1961 18.2251 75.2741 18.1472C75.3521 18.0692 75.4578 18.0254 75.5681 18.0254H82.5189C82.6285 18.0275 82.733 18.072 82.8105 18.1495C82.888 18.227 82.9325 18.3315 82.9346 18.4411V25.392C82.9347 25.4487 82.9232 25.5049 82.9008 25.557C82.8784 25.6092 82.8455 25.6562 82.8042 25.6951C82.7629 25.7341 82.7141 25.7641 82.6608 25.7835C82.6074 25.8029 82.5506 25.8111 82.494 25.8077ZM75.9588 24.9763H82.0783V18.8568H75.9588V24.9763Z" fill="#0992C5"/>
<path d="M46.343 18.8558H33.8298C33.7195 18.8558 33.6138 18.812 33.5358 18.7341C33.4579 18.6561 33.4141 18.5504 33.4141 18.4401V5.96846C33.4162 5.85887 33.4607 5.75436 33.5382 5.67685C33.6157 5.59935 33.7202 5.55486 33.8298 5.55273L46.343 5.55273C46.4533 5.55273 46.559 5.59653 46.637 5.6745C46.7149 5.75246 46.7587 5.8582 46.7587 5.96846V18.4401C46.7587 18.5504 46.7149 18.6561 46.637 18.7341C46.559 18.812 46.4533 18.8558 46.343 18.8558ZM34.2455 18.0244H45.9273V6.38418L34.2455 6.38418V18.0244Z" fill="#0992C5"/>
<path d="M9.14587 383.761C9.03561 383.761 8.92988 383.717 8.85192 383.639C8.77395 383.561 8.73015 383.455 8.73015 383.345V373.143H0.415721C0.305465 373.143 0.199731 373.099 0.121768 373.021C0.0438051 372.943 0 372.838 0 372.727L0 360.256C0.00212855 360.146 0.0466215 360.042 0.124128 359.964C0.201634 359.887 0.306132 359.842 0.415721 359.84H16.845V341.656H8.33107C8.22082 341.656 8.11508 341.613 8.03712 341.535C7.95916 341.457 7.91535 341.351 7.91535 341.241L7.91535 318.742H2.1784C2.06815 318.742 1.96239 318.698 1.88442 318.62C1.80646 318.542 1.76268 318.436 1.76268 318.326L1.76268 299.145C1.76268 299.035 1.80646 298.929 1.88442 298.851C1.96239 298.773 2.06815 298.729 2.1784 298.729H9.43688V289.583H1.40514C1.29488 289.583 1.18915 289.539 1.11119 289.461C1.03322 289.383 0.989419 289.278 0.989419 289.167L0.989419 271.483C0.991547 271.373 1.03604 271.269 1.11355 271.191C1.19105 271.114 1.29555 271.069 1.40514 271.067H10.9751L10.9751 222.752H2.1784C2.06815 222.752 1.96239 222.708 1.88442 222.63C1.80646 222.552 1.76268 222.446 1.76268 222.336L1.76268 209.282C1.76268 209.172 1.80646 209.066 1.88442 208.988C1.96239 208.911 2.06815 208.867 2.1784 208.867H11.5488L11.5488 177.804C11.5488 177.694 11.5926 177.588 11.6705 177.51C11.7485 177.432 11.8542 177.388 11.9645 177.388H23.297V170.537H1.78762C1.67737 170.537 1.57161 170.493 1.49364 170.415C1.41568 170.337 1.3719 170.232 1.3719 170.122L1.3719 101.012C1.3719 100.902 1.41568 100.796 1.49364 100.718C1.57161 100.64 1.67737 100.596 1.78762 100.596H10.2018V93.3295C10.2039 93.2199 10.2484 93.1154 10.3259 93.0378C10.4034 92.9603 10.5079 92.9159 10.6175 92.9137H18.6493L18.6493 75.3204H0.681789C0.571533 75.3204 0.465799 75.2766 0.387836 75.1986C0.309873 75.1207 0.266068 75.0149 0.266068 74.9047L0.266068 51.1005C0.266068 50.9902 0.309873 50.8845 0.387836 50.8065C0.465799 50.7285 0.571533 50.6847 0.681789 50.6847H10.2018L10.2018 36.9244H2.94331C2.83306 36.9244 2.72732 36.8806 2.64936 36.8026C2.5714 36.7246 2.52759 36.6189 2.52759 36.5087L2.52759 0.415721C2.52759 0.305465 2.5714 0.199726 2.64936 0.121763C2.72732 0.0438004 2.83306 0 2.94331 0C3.0529 0.00212855 3.15743 0.046612 3.23493 0.124118C3.31244 0.201624 3.35691 0.306132 3.35904 0.415721L3.35904 36.0929H10.6175C10.7278 36.0929 10.8335 36.1367 10.9115 36.2147C10.9895 36.2927 11.0333 36.3984 11.0333 36.5087L11.0333 51.1005C11.0333 51.2107 10.9895 51.3165 10.9115 51.3944C10.8335 51.4724 10.7278 51.5162 10.6175 51.5162H1.09751L1.09751 74.489H19.0317C19.142 74.489 19.2477 74.5328 19.3257 74.6107C19.4037 74.6887 19.4475 74.7944 19.4475 74.9047L19.4475 93.3295C19.4475 93.4397 19.4037 93.5454 19.3257 93.6234C19.2477 93.7014 19.142 93.7452 19.0317 93.7452H11V101.012C11 101.122 10.9562 101.228 10.8782 101.306C10.8003 101.384 10.6945 101.428 10.5843 101.428H2.20334L2.20334 169.706H23.6795C23.7898 169.706 23.8955 169.75 23.9735 169.828C24.0514 169.905 24.0952 170.011 24.0952 170.122V177.804C24.0931 177.914 24.0486 178.018 23.9711 178.096C23.8936 178.173 23.7891 178.218 23.6795 178.22H12.3802L12.3802 209.282C12.3802 209.393 12.3364 209.498 12.2584 209.576C12.1805 209.654 12.0747 209.698 11.9645 209.698H2.59412L2.59412 221.92H11.3908C11.5004 221.923 11.6049 221.967 11.6824 222.045C11.7599 222.122 11.8044 222.227 11.8065 222.336L11.8065 271.483C11.8065 271.593 11.7627 271.699 11.6847 271.777C11.6068 271.855 11.501 271.898 11.3908 271.898H1.82086L1.82086 288.727H9.88587C9.99612 288.727 10.1019 288.771 10.1798 288.849C10.2578 288.927 10.3016 289.032 10.3016 289.143V299.12C10.3016 299.23 10.2578 299.336 10.1798 299.414C10.1019 299.492 9.99612 299.536 9.88587 299.536H2.62736L2.62736 317.902H8.36434C8.47459 317.902 8.58033 317.946 8.65829 318.024C8.73625 318.102 8.78006 318.208 8.78006 318.318L8.78006 340.817H17.3273C17.4369 340.819 17.5414 340.863 17.6189 340.941C17.6964 341.018 17.7409 341.123 17.743 341.232V360.256C17.743 360.366 17.6992 360.472 17.6212 360.55C17.5433 360.628 17.4375 360.672 17.3273 360.672H0.864708L0.864708 372.312H9.17913C9.28872 372.314 9.39325 372.358 9.47075 372.436C9.54826 372.513 9.59273 372.618 9.59486 372.727V383.32C9.59864 383.38 9.58956 383.439 9.56821 383.495C9.54687 383.551 9.51378 383.601 9.47119 383.643C9.42859 383.685 9.37748 383.717 9.32135 383.737C9.26522 383.758 9.20536 383.766 9.14587 383.761Z" fill="#0992C5"/>
</svg>
