<svg width="80" height="28" viewBox="0 0 80 28" fill="none" xmlns="http://www.w3.org/2000/svg">
<path d="M6.51566 20.7251H17.8536C18.4181 20.7251 18.8353 20.7496 19.1052 20.7987C19.3997 20.8232 19.731 20.9337 20.0991 21.13C20.7618 21.4736 21.0931 22.4307 21.0931 24.0013C21.0931 25.7192 20.6391 26.7254 19.731 27.0199C19.3138 27.1671 18.6758 27.2407 17.8168 27.2407H3.23942C1.52155 27.2407 0.515363 26.7745 0.22087 25.8419C0.0736233 25.4492 0 24.8234 0 23.9645V3.49723C0 2.24564 0.23314 1.39897 0.699421 0.957233C1.1657 0.490953 2.04918 0.257812 3.34986 0.257812H17.8536C18.4181 0.257812 18.8353 0.282354 19.1052 0.331436C19.3997 0.355978 19.731 0.466414 20.0991 0.662743C20.7618 1.00632 21.0931 1.96342 21.0931 3.53405C21.0931 5.25192 20.6391 6.25811 19.731 6.5526C19.3138 6.69985 18.6758 6.77347 17.8168 6.77347H6.51566V10.4914H13.8044C14.3688 10.4914 14.786 10.516 15.056 10.5651C15.3505 10.5896 15.6818 10.7 16.0499 10.8964C16.7125 11.2399 17.0438 12.1971 17.0438 13.7677C17.0438 15.4856 16.5775 16.4917 15.6449 16.7862C15.2277 16.9335 14.5897 17.0071 13.7307 17.0071H6.51566V20.7251Z" fill="#012060"/>
<path d="M23.5117 3.49723C23.5117 2.93279 23.524 2.51559 23.5485 2.24564C23.5976 1.95115 23.7203 1.61984 23.9166 1.25172C24.2602 0.589116 25.2173 0.257812 26.788 0.257812C28.5058 0.257812 29.5243 0.711823 29.8433 1.61984C29.966 2.03704 30.0274 2.67511 30.0274 3.53405V24.0013C30.0274 24.5903 30.0028 25.0198 29.9538 25.2897C29.9292 25.5597 29.8188 25.8787 29.6224 26.2468C29.2789 26.9094 28.3218 27.2407 26.7511 27.2407C25.0333 27.2407 24.0271 26.7745 23.7326 25.8419C23.5853 25.4492 23.5117 24.8234 23.5117 23.9645V3.49723Z" fill="#01B0F1"/>
<path d="M49.8611 20.1728L50.5237 19.6942C51.3581 19.2034 51.9471 18.958 52.2907 18.958C53.0515 18.958 53.8736 19.6451 54.7571 21.0194C55.297 21.8784 55.5669 22.5655 55.5669 23.0809C55.5669 23.5963 55.3951 24.0257 55.0516 24.3693C54.7325 24.7129 54.3521 25.0196 53.9104 25.2896C53.4687 25.5595 53.0392 25.8172 52.622 26.0626C52.2293 26.308 51.4072 26.6271 50.1556 27.0197C48.904 27.4124 47.6892 27.6087 46.5113 27.6087C45.3578 27.6087 44.1799 27.4615 42.9773 27.167C41.7994 26.848 40.5723 26.3326 39.2962 25.6209C38.0446 24.8847 36.9157 24.0012 35.9095 22.9705C34.9033 21.9152 34.0689 20.5777 33.4063 18.958C32.7683 17.3137 32.4492 15.5345 32.4492 13.6203C32.4492 11.7061 32.7683 9.97596 33.4063 8.42987C34.0444 6.85924 34.8542 5.57083 35.8359 4.56464C36.8421 3.53392 37.9832 2.67498 39.2594 1.98783C41.6644 0.662609 44.0817 0 46.5113 0C47.6647 0 48.8304 0.184061 50.0084 0.552177C51.2109 0.895752 52.1189 1.2516 52.7324 1.61971L53.6159 2.13507C54.0576 2.40503 54.4012 2.6259 54.6466 2.79769C55.2847 3.31305 55.6037 3.90203 55.6037 4.56464C55.6037 5.20271 55.3461 5.87759 54.8307 6.58928C53.8736 7.9145 53.0146 8.57711 52.2539 8.57711C51.8121 8.57711 51.1863 8.30716 50.3765 7.76726C49.3458 6.93286 47.9715 6.51566 46.2536 6.51566C44.6584 6.51566 43.0878 7.06784 41.5417 8.17218C40.8055 8.71209 40.1919 9.47286 39.7011 10.4545C39.2103 11.4361 38.9649 12.5528 38.9649 13.8044C38.9649 15.0314 39.2103 16.1358 39.7011 17.1174C40.1919 18.0991 40.8177 18.8721 41.5785 19.4365C43.0755 20.5164 44.6339 21.0563 46.2536 21.0563C47.0144 21.0563 47.726 20.9581 48.3887 20.7618C49.0758 20.5654 49.5666 20.3691 49.8611 20.1728Z" fill="#01B0F1"/>
<path d="M64.5352 20.7251H75.8732C76.4376 20.7251 76.8548 20.7496 77.1248 20.7987C77.4193 20.8232 77.7506 20.9337 78.1187 21.13C78.7813 21.4736 79.1126 22.4307 79.1126 24.0013C79.1126 25.7192 78.6586 26.7254 77.7506 27.0199C77.3334 27.1671 76.6953 27.2407 75.8364 27.2407H61.259C59.5411 27.2407 58.5349 26.7745 58.2404 25.8419C58.0932 25.4492 58.0195 24.8234 58.0195 23.9645V3.49723C58.0195 2.24564 58.2527 1.39897 58.719 0.957233C59.1852 0.490953 60.0687 0.257812 61.3694 0.257812H75.8732C76.4376 0.257812 76.8548 0.282354 77.1248 0.331436C77.4193 0.355978 77.7506 0.466414 78.1187 0.662743C78.7813 1.00632 79.1126 1.96342 79.1126 3.53405C79.1126 5.25192 78.6586 6.25811 77.7506 6.5526C77.3334 6.69985 76.6953 6.77347 75.8364 6.77347H64.5352V10.4914H71.8239C72.3883 10.4914 72.8055 10.516 73.0755 10.5651C73.37 10.5896 73.7013 10.7 74.0694 10.8964C74.732 11.2399 75.0633 12.1971 75.0633 13.7677C75.0633 15.4856 74.597 16.4917 73.6645 16.7862C73.2473 16.9335 72.6092 17.0071 71.7503 17.0071H64.5352V20.7251Z" fill="#012060"/>
</svg>
